<?xml version="1.0" encoding="UTF-8"?>
<svg width="282px" height="319px" viewBox="0 0 282 319" version="1.1" xmlns="http://www.w3.org/2000/svg" xmlns:xlink="http://www.w3.org/1999/xlink">
    <!-- Generator: Sketch 63.1 (92452) - https://sketch.com -->
    <title>Group 11</title>
    <desc>Created with Sketch.</desc>
    <defs>
        <filter x="-10.5%" y="-11.3%" width="121.1%" height="122.6%" filterUnits="objectBoundingBox" id="filter-1">
            <feOffset dx="0" dy="2" in="SourceAlpha" result="shadowOffsetOuter1"></feOffset>
            <feGaussianBlur stdDeviation="2" in="shadowOffsetOuter1" result="shadowBlurOuter1"></feGaussianBlur>
            <feColorMatrix values="0 0 0 0 0   0 0 0 0 0   0 0 0 0 0  0 0 0 0.5 0" type="matrix" in="shadowBlurOuter1" result="shadowMatrixOuter1"></feColorMatrix>
            <feMerge>
                <feMergeNode in="shadowMatrixOuter1"></feMergeNode>
                <feMergeNode in="SourceGraphic"></feMergeNode>
            </feMerge>
        </filter>
    </defs>
    <g id="screens" stroke="none" stroke-width="1" fill="none" fill-rule="evenodd">
        <g id="1" transform="translate(-45.000000, -105.000000)">
            <g id="Group-11" transform="translate(45.000000, 106.000000)">
                <g id="Group-8">
                    <path d="M2.43311239,135.781712 C-9.7863094,49.4759152 24.9722275,17.5233472 106.708723,39.9240085 C229.313467,73.5250005 243.04932,64.0314795 243.04932,112.859472 C243.04932,161.687464 126.533342,262 76.8241312,262 C43.6846571,262 18.8876509,219.927237 2.43311239,135.781712 Z" id="Path-11" fill="#D3F9D9" opacity="0.18"></path>
                    <g id="Group-2" transform="translate(15.049320, 0.000000)">
                        <g id="Group-5">
                            <path d="M2.94194472,88.5558816 C-1.61689812,76.4051027 -0.877447646,65.1040297 5.16029615,54.6526626 C14.2169118,38.9756121 4.66355164,48.126098 7.12838657,23.3709682 C9.5932215,-1.38416159 17.107107,-3.9357394 52.7046119,4.04066124 C76.4362819,9.35826168 75.3929259,29.3965519 49.5745439,64.1555318 C52.6154514,81.1317815 66.7053041,90.8618991 91.844102,93.3458847 C116.9829,95.8298704 125.51381,115.538925 117.436833,152.473048 C104.485628,176.697111 84.043562,181.342364 56.1106354,166.408806 C28.1777088,151.475249 10.4548119,125.524274 2.94194472,88.5558816 Z" id="Path-28" stroke="#979797" fill="#715960"></path>
                            <path d="M59.2974347,145.882815 C67.6587077,151.745837 73.7183296,152.987222 77.4763004,149.606968 C81.2342712,146.226714 88.508629,136.204599 99.2993738,119.540623 L115.552598,95.3665121 C112.843168,90.106048 110.788027,87.4758159 109.387177,87.4758159 C107.986326,87.4758159 100.665606,94.7691042 87.4250162,109.355681 C75.8523732,118.713726 69.3966631,124.77203 68.057886,127.530592 C66.7191089,130.289153 61.306711,126.961482 51.8206923,117.547578 L56.1106354,146.973578 L59.2974347,145.882815 Z" id="Path-34" fill="#FEC0C4"></path>
                            <path d="M43.4613119,181.666358 C53.2585965,177.447056 58.1572388,170.308033 58.1572388,160.249289 C58.1572388,145.161172 57.2101624,134.520161 59.5166588,129.243016 C61.0543232,125.72492 59.918982,121.82644 56.1106354,117.547578 L43.4613119,181.666358 Z" id="Path-33" fill="#DF91C3"></path>
                            <path d="M47.2122644,93.3839803 C48.1389954,91.5862581 61.9765764,118.240198 58.8340891,127.494583 C55.6916019,136.748969 52.5625482,139.827341 52.9310883,150.519111 C53.1767818,157.646958 54.0655123,171.977018 55.5972801,193.50929 C51.878415,202.011494 43.6821228,203.539532 31.0084034,198.093405 C18.334684,192.647279 13.1782525,193.455066 15.5391088,200.516768 L34.8771436,98.8084187 C33.8730324,93.5082655 34.9873719,92.2993601 38.2201622,95.1817024 C43.0693476,99.5052159 46.2855333,95.1817024 47.2122644,93.3839803 Z" id="Path-31" fill="#FDF8F8"></path>
                            <path d="M10.1219275,189.139173 C-1.45155535,200.146298 -3.07881976,215.436402 5.24013429,235.009483 C13.5590883,254.582565 22.7317604,274.114629 32.7581504,293.605676 L68.443107,286.01574 L59.2974347,219.404166 L59.5166588,194.648512 L56.1106354,190.140353 L56.1106354,183.168728 L10.1219275,189.139173 Z" id="Path-35" fill="#B9B7ED"></path>
                            <path d="M21.0228085,66.1146281 L25.5147626,47.9965324 C23.5306475,39.8938145 24.141439,35.8424556 27.3471372,35.8424556 C30.5528354,35.8424556 32.7656106,39.8938145 33.9854627,47.9965324 C35.0753305,54.8634038 35.0753305,59.5998043 33.9854627,62.2057338 C32.3506609,66.1146281 39.7832379,62.5284481 36.0669494,32.8700867 C33.5894237,13.0978458 32.8955948,14.0886354 33.9854627,35.8424556 C36.0173902,31.7172867 39.2452596,29.0506472 43.669071,27.8425372 C48.0928824,26.6344271 52.2521606,23.9142197 56.1469057,19.6819149 C60.863783,22.606813 63.2222216,26.499854 63.2222216,31.361038 C63.2222216,38.6528139 60.3320504,61.3107568 49.1140629,67.4854448 C41.6354046,71.6019034 37.9912812,72.3429269 38.1816929,69.7085153 C41.7460433,83.5795698 44.3011683,91.0575272 45.8470677,92.1423873 C48.165917,93.7696776 42.7646155,98.9487853 41.0541707,96.3592315 C39.9138742,94.6328622 39.5580478,93.2272475 39.9866914,92.1423873 L21.0228085,66.1146281 Z" id="Path-25" fill="#FEC0C4"></path>
                            <path d="M54.6465851,43.9581836 C53.3207443,47.1814431 51.0352163,54.6526626 54.6465851,54.6526626 C58.2579539,54.6526626 60.5563933,52.7489661 59.0456031,51.0271946 C57.5348128,49.3054231 60.2096549,45.8287591 59.0456031,43.9581836 C57.8815512,42.0876081 55.9724259,40.7349241 54.6465851,43.9581836 Z" id="Path-26" fill="#F9C4C7"></path>
                            <path d="M23.5891471,54.6526626 C26.533732,61.4073715 28.4113092,64.784726 29.2218785,64.784726 C30.4377326,64.784726 32.2860795,77.5701088 35.0212846,78.7744432 C36.8447547,79.5773327 35.9172643,80.4626711 32.2388135,81.4304583 L21.4310839,65.9547932 L23.5891471,54.6526626 Z" id="Path-27" fill="#F9C4C7"></path>
                            <path d="M3.35063127,178.665669 L3.35063127,182.909252 C22.1725461,183.923032 36.4874232,181.966167 46.2952626,177.038657 C56.1031019,172.111146 55.0388529,162.01095 43.1025154,146.738069 C42.6731988,140.575826 43.0979942,135.870842 44.3769015,132.62312 C46.2952626,127.751537 45.5660087,105.210077 42.1225151,101.14097 C39.8268526,98.4282322 39.1149114,95.4287046 39.9866914,92.1423873 L21.0228085,64.7630146 C16.387984,64.7630146 14.0705718,68.0231433 14.0705718,74.5434007 C14.0705718,84.3237868 1.37860569,83.8864084 2.36461848,97.0718632 C3.02196034,105.862166 3.35063127,133.060102 3.35063127,178.665669 Z" id="Path-29" fill="#DF91C3"></path>
                            <path d="M17.7185654,81.4304583 C39.8942761,87.4758159 27.6205467,115.131664 27.6205467,113.231598 C27.6205467,111.964888 24.7131139,126.944408 18.8982484,158.170157 C23.7144232,194.878511 26.1225105,216.169535 26.1225105,222.043228 C26.1225105,227.916922 23.7144232,231.402344 18.8982484,232.499495 L5.6735491,189.818494 L1.23099336,163.114422 C-2.56109915,104.628208 2.93475818,77.40022 17.7185654,81.4304583 Z" id="Path-30" fill="#FEC0C4"></path>
                            <path d="M40.5268494,76.8687597 C48.7467565,87.45467 52.4690322,95.7208116 51.6936765,101.667184 C50.9183208,107.613557 46.5297198,100.201556 38.5278734,79.431182 L40.5268494,76.8687597 Z" id="Path-32" fill="#DF91C3"></path>
                            <path d="M12.2887208,235.845579 C12.4974025,236.916118 14.3073506,235.800756 17.7185654,232.499495 C17.7185654,228.479236 17.2619005,226.136541 16.3485707,225.471409 C14.978576,224.473712 11.9756984,234.239771 12.2887208,235.845579 Z" id="Path-36" fill="#6236FF"></path>
                            <polygon id="Path-37" fill="#6236FF" points="26.271109 214.463586 26.271109 221.175023 29.854765 213.066967"></polygon>
                            <path d="M12.8505451,241.298057 C21.8323484,252.440529 29.685209,256.607235 36.4091267,253.798174 C46.4950033,249.584582 34.2473952,258.396054 28.8759221,257.83415 C25.2949401,257.459548 19.9531477,251.947517 12.8505451,241.298057 Z" id="Path-38" fill="#6236FF"></path>
                            <polygon id="Path-39" fill="#B9B7ED" points="57.2309936 181.658551 97.8797147 261.25983 64.0321959 281.980826 49.4462042 187.934041"></polygon>
                            <path d="M63.6098594,242.527338 C67.0855116,257.529663 69.8802665,265.913132 71.9941243,267.677745 C74.1079821,269.442359 74.6642605,271.875395 73.6629594,274.976856 L66.6193565,279.194742 L63.6098594,242.527338 Z" id="Path-40" fill="#6236FF"></path>
                            <path d="M104.647499,93.3650038 L110.885408,83.8509989 C109.972033,77.4930799 110.548742,73.6424702 112.615534,72.2991698 C114.682327,70.9558694 116.784001,70.3826447 118.920557,70.5794957 L125.302576,68.5208054 L126.291291,72.2991698 C127.918623,79.7235963 127.268244,84.602822 124.340154,86.9368469 C121.412063,89.2708718 116.170283,94.0842173 108.614813,101.376883 L104.647499,93.3650038 Z" id="Path-43" fill="#FEC0C4"></path>
                            <g id="Group-4" transform="translate(117.282724, 44.185008)" stroke="#979797">
                                <path d="M1.53181472e-13,32.8151934 L3.10018894,40.1479794 L5.80055018,40.9295848 L18.8723382,2.79938032 C19.3802602,0.933126772 18.5162918,1.55932139e-13 16.2804332,1.55932139e-13 C14.0445745,1.55932139e-13 12.117947,0.933126772 10.5005506,2.79938032 L1.53181472e-13,32.8151934 Z" id="Path-41" fill="#6E6666"></path>
                                <polygon id="Path-42" fill="#D8D8D8" points="4.22124117 36.5471902 14.6881138 3.5143646 11.4633882 4.38822795 1.77276527 31.8404541"></polygon>
                            </g>
                        </g>
                        <rect id="Rectangle" fill="#715960" x="26.4263959" y="15.3270142" width="9.73604061" height="20.2037915"></rect>
                    </g>
                    <g id="Group-7" filter="url(#filter-1)" transform="translate(139.049320, 74.000000)">
                        <rect id="Rectangle" stroke="#979797" fill="#FFFFFF" x="18.6840491" y="20.7236842" width="94.8159509" height="84.7763158" rx="13"></rect>
                        <polygon id="Triangle" fill="#6D7278" transform="translate(11.556910, 12.888164) rotate(-41.000000) translate(-11.556910, -12.888164) " points="11.5139438 -2.12518103 13.3032051 27.9015093 9.81061562 27.8965132"></polygon>
                        <rect id="Rectangle" stroke="#979797" x="27.0766871" y="36.0657895" width="9.49079755" height="9.46052632"></rect>
                        <rect id="Rectangle" stroke="#979797" x="27.0766871" y="48.6184211" width="9.49079755" height="9.46052632"></rect>
                        <rect id="Rectangle" stroke="#979797" x="27.0766871" y="61.1710526" width="9.49079755" height="9.46052632"></rect>
                        <rect id="Rectangle" stroke="#979797" x="27.0766871" y="73.7236842" width="9.49079755" height="9.46052632"></rect>
                        <rect id="Rectangle" stroke="#979797" x="27.0766871" y="86.2763158" width="9.49079755" height="9.46052632"></rect>
                        <g id="Group" transform="translate(28.674847, 45.450971)" fill="#E02020">
                            <polygon id="Triangle" transform="translate(7.260476, 4.889566) rotate(-124.000000) translate(-7.260476, -4.889566) " points="7.17875711 -2.09743282 7.98998192 11.8765639 6.53096963 11.8688501"></polygon>
                            <polygon id="Rectangle" transform="translate(1.049080, 7.897714) rotate(-35.000000) translate(-1.049080, -7.897714) " points="0.698296185 6.85019096 1.39701876 6.85113915 1.39986332 8.9452362 0.70114075 8.94428801"></polygon>
                        </g>
                        <g id="Group-Copy" transform="translate(28.674847, 58.578947)" fill="#E02020">
                            <polygon id="Triangle" transform="translate(7.260476, 4.889566) rotate(-124.000000) translate(-7.260476, -4.889566) " points="7.17875711 -2.09743282 7.98998192 11.8765639 6.53096963 11.8688501"></polygon>
                            <polygon id="Rectangle" transform="translate(1.049080, 7.897714) rotate(-35.000000) translate(-1.049080, -7.897714) " points="0.698296185 6.85019096 1.39701876 6.85113915 1.39986332 8.9452362 0.70114075 8.94428801"></polygon>
                        </g>
                        <g id="Group-Copy-2" transform="translate(28.674847, 33.473684)" fill="#E02020">
                            <polygon id="Triangle" transform="translate(7.260476, 4.889566) rotate(-124.000000) translate(-7.260476, -4.889566) " points="7.17875711 -2.09743282 7.98998192 11.8765639 6.53096963 11.8688501"></polygon>
                            <polygon id="Rectangle" transform="translate(1.049080, 7.897714) rotate(-35.000000) translate(-1.049080, -7.897714) " points="0.698296185 6.85019096 1.39701876 6.85113915 1.39986332 8.9452362 0.70114075 8.94428801"></polygon>
                        </g>
                        <rect id="Rectangle" fill="#D8D8D8" transform="translate(75.883436, 40.447368) scale(1, -1) translate(-75.883436, -40.447368) " x="47.5582822" y="36.9605263" width="56.6503067" height="6.97368421"></rect>
                        <rect id="Rectangle-Copy-2" fill="#D8D8D8" transform="translate(75.883436, 53.000000) scale(1, -1) translate(-75.883436, -53.000000) " x="47.5582822" y="49.5131579" width="56.6503067" height="6.97368421"></rect>
                        <rect id="Rectangle-Copy-3" fill="#D8D8D8" transform="translate(75.883436, 65.552632) scale(1, -1) translate(-75.883436, -65.552632) " x="47.5582822" y="62.0657895" width="56.6503067" height="6.97368421"></rect>
                        <rect id="Rectangle-Copy-4" fill="#D8D8D8" transform="translate(75.883436, 78.105263) scale(1, -1) translate(-75.883436, -78.105263) " x="47.5582822" y="74.6184211" width="56.6503067" height="6.97368421"></rect>
                        <rect id="Rectangle-Copy-5" fill="#D8D8D8" transform="translate(75.883436, 90.657895) scale(1, -1) translate(-75.883436, -90.657895) " x="47.5582822" y="87.1710526" width="56.6503067" height="6.97368421"></rect>
                    </g>
                </g>
                <text id="Choose-to-be-Shopper" font-family=".AppleSystemUIFont" font-size="18" font-weight="normal" letter-spacing="0.450000018" fill="#709B78">
                    <tspan x="138" y="271">Choose to be </tspan>
                    <tspan x="138" y="292" font-family=".SFNSDisplay, .SF NS Display" font-size="36" letter-spacing="0.900000036">Shopper</tspan>
                </text>
            </g>
        </g>
    </g>
</svg>