<?xml version="1.0" encoding="utf-8"?>
<!-- Generator: Adobe Illustrator 24.2.0, SVG Export Plug-In . SVG Version: 6.00 Build 0)  -->
<svg version="1.1" id="Layer_1" xmlns="http://www.w3.org/2000/svg" xmlns:xlink="http://www.w3.org/1999/xlink" x="0px" y="0px"
	 viewBox="0 0 373.4 422.4" style="enable-background:new 0 0 373.4 422.4;" xml:space="preserve">
<style type="text/css">
	.st0{opacity:0.3;fill:#D3F9D9;enable-background:new    ;}
	.st1{enable-background:new    ;}
	.st2{fill:#709B78;}
	.st3{fill:#4D251E;}
	.st4{fill:#B9B7ED;}
	.st5{fill:#8DC8EC;}
	.st6{fill:#85C1E4;}
	.st7{opacity:0.462;}
	.st8{fill:#6A4842;}
	.st9{fill:none;}
	.st10{fill:none;stroke:#979797;stroke-miterlimit:10;}
	.st11{fill:#FFFFFF;}
	.st12{fill:#D8D8D8;}
	.st13{fill:#8D89F6;}
	.st14{opacity:0.12;fill:#6236FF;enable-background:new    ;}
	.st15{fill:#845D56;}
	.st16{fill:#877EF7;}
	.st17{fill:#5294AF;}
	.st18{fill:#FFEDBC;}
	.st19{fill:#FEC0C4;}
	.st20{opacity:0.12;fill:#5294AF;enable-background:new    ;}
	.st21{fill:#715960;}
	.st22{opacity:0.118;fill:#FFB300;enable-background:new    ;}
</style>
<g id="drop" transform="translate(-1 -39.551)">
	<path id="Path_11" class="st0" d="M291.3,314c0,0-67.4,132.5-159.6,21.2S20.4,223.7,52.3,178.2s205.7-62.8,252-30.3
		S291.3,314,291.3,314z"/>
	<g class="st1">
		<path class="st2" d="M135.6,396.4L132,409h-1.7l-2.6-9.2c-0.1-0.4-0.2-0.8-0.2-1.3h0c0,0.4-0.1,0.9-0.2,1.3l-2.6,9.2h-1.7
			l-3.7-12.6h1.6l2.7,9.7c0.1,0.4,0.2,0.8,0.2,1.3h0c0-0.3,0.1-0.7,0.3-1.3l2.8-9.7h1.4l2.7,9.7c0.1,0.3,0.2,0.7,0.2,1.2h0
			c0-0.3,0.1-0.7,0.2-1.2l2.6-9.7H135.6z"/>
		<path class="st2" d="M143.5,409H142v-1.4h0c-0.6,1.1-1.5,1.6-2.8,1.6c-0.9,0-1.6-0.2-2.1-0.7s-0.8-1.1-0.8-1.9c0-1.7,1-2.7,3-2.9
			l2.7-0.4c0-1.5-0.6-2.3-1.9-2.3c-1.1,0-2.1,0.4-2.9,1.1v-1.5c0.9-0.6,1.9-0.8,3.1-0.8c2.1,0,3.2,1.1,3.2,3.4V409z M142,404.4
			l-2.2,0.3c-0.7,0.1-1.2,0.3-1.5,0.5c-0.3,0.2-0.5,0.7-0.5,1.3c0,0.4,0.2,0.8,0.5,1.1c0.3,0.3,0.7,0.4,1.3,0.4
			c0.7,0,1.3-0.3,1.8-0.8c0.5-0.5,0.7-1.1,0.7-1.9V404.4z"/>
		<path class="st2" d="M154.1,409h-1.4v-5.1c0-1.9-0.7-2.9-2.1-2.9c-0.7,0-1.3,0.3-1.8,0.8c-0.5,0.5-0.7,1.2-0.7,2.1v5.1h-1.4v-9
			h1.4v1.5h0c0.7-1.1,1.7-1.7,3-1.7c1,0,1.7,0.3,2.3,1c0.5,0.6,0.8,1.6,0.8,2.8V409z"/>
		<path class="st2" d="M161.4,408.9c-0.3,0.2-0.8,0.3-1.3,0.3c-1.6,0-2.4-0.9-2.4-2.6v-5.3h-1.5V400h1.5v-2.2l1.4-0.5v2.7h2.3v1.2
			h-2.3v5.1c0,0.6,0.1,1,0.3,1.3s0.5,0.4,1,0.4c0.4,0,0.7-0.1,0.9-0.3V408.9z"/>
		<path class="st2" d="M173.4,408.9c-0.3,0.2-0.8,0.3-1.3,0.3c-1.6,0-2.4-0.9-2.4-2.6v-5.3h-1.5V400h1.5v-2.2l1.4-0.5v2.7h2.3v1.2
			h-2.3v5.1c0,0.6,0.1,1,0.3,1.3s0.5,0.4,1,0.4c0.4,0,0.7-0.1,0.9-0.3V408.9z"/>
		<path class="st2" d="M179.5,409.2c-1.3,0-2.4-0.4-3.2-1.3c-0.8-0.8-1.2-2-1.2-3.3c0-1.5,0.4-2.7,1.2-3.5s1.9-1.3,3.3-1.3
			c1.3,0,2.4,0.4,3.1,1.2s1.1,2,1.1,3.4c0,1.4-0.4,2.6-1.2,3.4C182,408.8,180.9,409.2,179.5,409.2z M179.6,401
			c-0.9,0-1.7,0.3-2.2,0.9s-0.8,1.5-0.8,2.6c0,1.1,0.3,1.9,0.8,2.5s1.3,0.9,2.2,0.9c0.9,0,1.6-0.3,2.1-0.9s0.8-1.5,0.8-2.6
			c0-1.1-0.3-2-0.8-2.6S180.5,401,179.6,401z"/>
		<path class="st2" d="M192.3,409v-12.6h3.5c4.4,0,6.7,2,6.7,6.1c0,1.9-0.6,3.5-1.8,4.7c-1.2,1.2-2.9,1.8-5,1.8H192.3z M193.8,397.7
			v9.9h1.9c1.7,0,2.9-0.4,3.9-1.3s1.4-2.1,1.4-3.8c0-3.2-1.7-4.8-5.2-4.8H193.8z"/>
		<path class="st2" d="M212.4,404.9h-6.4c0,1,0.3,1.8,0.8,2.3s1.2,0.8,2.1,0.8c1,0,1.9-0.3,2.8-1v1.4c-0.8,0.6-1.8,0.9-3.1,0.9
			c-1.3,0-2.3-0.4-3-1.2c-0.7-0.8-1.1-2-1.1-3.4c0-1.4,0.4-2.5,1.2-3.4c0.8-0.9,1.8-1.3,3-1.3s2.1,0.4,2.7,1.1s1,1.8,1,3.2V404.9z
			 M210.9,403.6c0-0.8-0.2-1.5-0.6-1.9c-0.4-0.5-0.9-0.7-1.6-0.7c-0.7,0-1.3,0.2-1.7,0.7s-0.8,1.1-0.9,1.9H210.9z"/>
		<path class="st2" d="M216.5,409h-1.4v-13.3h1.4V409z"/>
		<path class="st2" d="M220.6,397.7c-0.3,0-0.5-0.1-0.7-0.3s-0.3-0.4-0.3-0.7s0.1-0.5,0.3-0.7s0.4-0.3,0.7-0.3
			c0.3,0,0.5,0.1,0.7,0.3c0.2,0.2,0.3,0.4,0.3,0.7c0,0.3-0.1,0.5-0.3,0.7C221.1,397.6,220.9,397.7,220.6,397.7z M221.3,409h-1.4v-9
			h1.4V409z"/>
		<path class="st2" d="M231.8,400l-3.6,9h-1.4l-3.4-9h1.6l2.3,6.5c0.2,0.5,0.3,0.9,0.3,1.3h0c0.1-0.5,0.2-0.9,0.3-1.2l2.4-6.6H231.8
			z"/>
		<path class="st2" d="M241,404.9h-6.4c0,1,0.3,1.8,0.8,2.3s1.2,0.8,2.1,0.8c1,0,1.9-0.3,2.8-1v1.4c-0.8,0.6-1.8,0.9-3.1,0.9
			c-1.3,0-2.3-0.4-3-1.2c-0.7-0.8-1.1-2-1.1-3.4c0-1.4,0.4-2.5,1.2-3.4c0.8-0.9,1.8-1.3,3-1.3s2.1,0.4,2.7,1.1s1,1.8,1,3.2V404.9z
			 M239.5,403.6c0-0.8-0.2-1.5-0.6-1.9s-0.9-0.7-1.6-0.7c-0.7,0-1.3,0.2-1.7,0.7s-0.8,1.1-0.9,1.9H239.5z"/>
		<path class="st2" d="M248.3,401.5c-0.3-0.2-0.6-0.3-1.1-0.3c-0.6,0-1.1,0.3-1.5,0.9c-0.4,0.6-0.6,1.4-0.6,2.4v4.6h-1.4v-9h1.4v1.9
			h0c0.2-0.6,0.5-1.1,0.9-1.5c0.4-0.4,0.9-0.5,1.4-0.5c0.4,0,0.7,0,0.9,0.1V401.5z"/>
		<path class="st2" d="M251.8,405.5c-0.1-0.2-0.1-0.3-0.1-0.6c0-0.2-0.1-0.5-0.1-0.7c0-0.4,0.1-0.7,0.2-1c0.2-0.3,0.3-0.6,0.6-0.8
			s0.5-0.5,0.7-0.8s0.5-0.5,0.7-0.7s0.4-0.5,0.6-0.8c0.1-0.3,0.2-0.6,0.2-0.9c0-0.3-0.1-0.5-0.2-0.7c-0.1-0.2-0.3-0.4-0.4-0.5
			s-0.4-0.3-0.7-0.3s-0.5-0.1-0.8-0.1c-1,0-1.8,0.4-2.6,1.2V397c0.9-0.6,1.8-0.8,2.8-0.8c0.4,0,0.9,0.1,1.3,0.2s0.7,0.3,1,0.5
			c0.3,0.2,0.5,0.5,0.7,0.9s0.3,0.7,0.3,1.2c0,0.4-0.1,0.8-0.2,1.2s-0.3,0.7-0.6,0.9c-0.2,0.3-0.5,0.5-0.8,0.8s-0.5,0.5-0.8,0.7
			c-0.2,0.2-0.4,0.5-0.6,0.8s-0.2,0.6-0.2,0.9c0,0.3,0,0.5,0.1,0.7c0.1,0.2,0.1,0.4,0.2,0.6H251.8z M252.6,409.2
			c-0.3,0-0.5-0.1-0.7-0.3c-0.2-0.2-0.3-0.4-0.3-0.7c0-0.3,0.1-0.5,0.3-0.7c0.2-0.2,0.4-0.3,0.7-0.3s0.5,0.1,0.7,0.3
			c0.2,0.2,0.3,0.4,0.3,0.7c0,0.3-0.1,0.5-0.3,0.7C253.1,409.1,252.9,409.2,252.6,409.2z"/>
	</g>
	<g class="st1">
		<path class="st2" d="M120.7,453v-12.6h3.5c4.4,0,6.7,2,6.7,6.1c0,1.9-0.6,3.5-1.9,4.7c-1.2,1.2-2.9,1.8-5,1.8H120.7z M122.1,441.7
			v9.9h1.9c1.7,0,2.9-0.4,3.9-1.3s1.4-2.1,1.4-3.8c0-3.2-1.7-4.8-5.2-4.8H122.1z"/>
		<path class="st2" d="M137.3,453.2c-1.3,0-2.4-0.4-3.2-1.3c-0.8-0.8-1.2-2-1.2-3.3c0-1.5,0.4-2.7,1.2-3.5s1.9-1.3,3.3-1.3
			c1.3,0,2.4,0.4,3.1,1.2s1.1,2,1.1,3.4c0,1.4-0.4,2.6-1.2,3.4C139.7,452.8,138.7,453.2,137.3,453.2z M137.4,445
			c-0.9,0-1.7,0.3-2.2,0.9s-0.8,1.5-0.8,2.6c0,1.1,0.3,1.9,0.8,2.5s1.3,0.9,2.2,0.9c0.9,0,1.6-0.3,2.1-0.9s0.8-1.5,0.8-2.6
			c0-1.1-0.3-2-0.8-2.6S138.3,445,137.4,445z"/>
		<path class="st2" d="M156.4,453h-1.4v-1.4h0c-0.6,1.1-1.5,1.6-2.8,1.6c-0.9,0-1.6-0.2-2.1-0.7s-0.8-1.1-0.8-1.9c0-1.7,1-2.7,3-2.9
			l2.7-0.4c0-1.5-0.6-2.3-1.9-2.3c-1.1,0-2.1,0.4-2.9,1.1v-1.5c0.9-0.6,1.9-0.8,3.1-0.8c2.1,0,3.2,1.1,3.2,3.4V453z M154.9,448.4
			l-2.2,0.3c-0.7,0.1-1.2,0.3-1.5,0.5c-0.3,0.2-0.5,0.7-0.5,1.3c0,0.4,0.2,0.8,0.5,1.1c0.3,0.3,0.7,0.4,1.3,0.4
			c0.7,0,1.3-0.3,1.8-0.8c0.5-0.5,0.7-1.1,0.7-1.9V448.4z"/>
	</g>
	<g class="st1">
		<path class="st2" d="M179.5,430.5h-9.8v8.7h9.1v2.7h-9.1V453h-3v-25.2h12.8V430.5z"/>
		<path class="st2" d="M196.5,453h-2.9v-2.8h-0.1c-1.3,2.2-3.1,3.2-5.5,3.2c-1.8,0-3.2-0.5-4.2-1.4s-1.5-2.2-1.5-3.8
			c0-3.4,2-5.3,5.9-5.9l5.4-0.8c0-3.1-1.2-4.6-3.7-4.6c-2.2,0-4.1,0.7-5.9,2.2v-3c1.8-1.1,3.8-1.7,6.1-1.7c4.2,0,6.3,2.2,6.3,6.7
			V453z M193.6,443.9l-4.3,0.6c-1.3,0.2-2.3,0.5-3,1s-1,1.3-1,2.5c0,0.9,0.3,1.6,0.9,2.2s1.5,0.8,2.5,0.8c1.4,0,2.6-0.5,3.5-1.5
			s1.4-2.3,1.4-3.8V443.9z"/>
		<path class="st2" d="M217,435l-7.2,18H207l-6.8-18h3.2l4.6,13.1c0.3,1,0.6,1.8,0.6,2.5h0.1c0.1-0.9,0.3-1.7,0.6-2.4l4.8-13.1H217z
			"/>
		<path class="st2" d="M239.4,453h-3.5l-4.2-7.1c-0.4-0.7-0.8-1.2-1.1-1.7s-0.7-0.8-1.1-1.1s-0.8-0.5-1.2-0.6s-0.9-0.2-1.5-0.2h-2.4
			V453h-3v-25.2h7.5c1.1,0,2.1,0.1,3,0.4s1.7,0.7,2.4,1.3s1.2,1.3,1.6,2.1s0.6,1.8,0.6,2.9c0,0.9-0.1,1.7-0.4,2.4s-0.6,1.4-1.1,2
			s-1.1,1.1-1.8,1.5s-1.5,0.7-2.3,0.9v0.1c0.4,0.2,0.8,0.4,1.1,0.6s0.6,0.5,0.9,0.9s0.6,0.7,0.8,1.1s0.6,0.9,0.9,1.5L239.4,453z
			 M224.3,430.5v9.1h4c0.7,0,1.4-0.1,2-0.3s1.2-0.5,1.6-1s0.8-0.9,1.1-1.5s0.4-1.3,0.4-2c0-1.3-0.4-2.4-1.3-3.2s-2.1-1.1-3.8-1.1
			H224.3z"/>
	</g>
	<g id="Group_14" transform="translate(61.74 118.5)">
		<g id="Group_9" transform="translate(122.305 215.069)">
			<rect id="Rectangle" x="0" y="0" class="st3" width="45.9" height="2.8"/>
			<rect id="Rectangle_Copy_11" x="0" y="2.8" class="st3" width="45.9" height="6.4"/>
		</g>
		<path id="Path_51" class="st4" d="M7.5,217.6c0,0-11.3-8.1-5.6-19.2c3.1-6.3,7.1-12.1,11.8-17.2v-5.9l18.1-15.9h91.4
			c0,0,1.6,4.7-7.8,10.3s-6.7,27.1-6.7,27.1s18.9,34.7,54.9,20.8s2.5-98.2,2.5-98.2s-5.4-16.5,2.6-18.4c4.6-1.1,9.2-1.6,13.9-1.5
			v19.8c0,0-6.6,1,0,7.3s24.6,26.5,24.6,26.5l15.6,22.1v5.9l-43.5,43.2c0,0-29.8,6.8-83.8,0C41.6,217.6,7.5,217.6,7.5,217.6z"/>
		<path id="Rectangle-2" class="st5" d="M27,117.5h34.4c1.7,0,3,1.3,3,3v21.6c0,1.7-1.3,3-3,3H27c-1.7,0-3-1.3-3-3v-21.6
			C24,118.9,25.4,117.5,27,117.5z"/>
		<rect id="Rectangle_Copy_9" x="25" y="125.8" class="st6" width="25.7" height="18.4"/>
		<g id="Group_13" transform="translate(44.238 117.515)" class="st7">
			<rect id="Rectangle-3" x="0" y="0" class="st3" width="5.5" height="41.4"/>
			<rect id="Rectangle_Copy_10" x="0" y="0" class="st8" width="2.8" height="41.4"/>
		</g>
		<g id="Oval" transform="translate(183.613 102.223) rotate(-25)">
			<ellipse transform="matrix(-1 2.857360e-06 -2.857360e-06 -1 4.594 6.44)" class="st9" cx="2.3" cy="3.2" rx="2.3" ry="3.2"/>
			<ellipse transform="matrix(-1 2.837917e-06 -2.837917e-06 -1 4.594 6.44)" class="st10" cx="2.3" cy="3.2" rx="1.8" ry="2.7"/>
		</g>
		<ellipse id="Oval-2" class="st3" cx="48.4" cy="232.6" rx="28.9" ry="25.8"/>
		<ellipse id="Oval_Copy_8" class="st3" cx="47.9" cy="226.1" rx="21.1" ry="22.1"/>
		<ellipse id="Oval_Copy_9" class="st11" cx="48.4" cy="221.5" rx="17" ry="22.1"/>
		<ellipse id="Oval_Copy_10" class="st3" cx="47.5" cy="226.6" rx="7.8" ry="9.7"/>
		<g id="Oval-3" transform="translate(21.277 213.229)">
			<ellipse class="st12" cx="1.8" cy="0.9" rx="1.8" ry="0.9"/>
			<ellipse class="st10" cx="1.8" cy="0.9" rx="1.3" ry="0.4"/>
		</g>
		<g id="Oval-4" transform="translate(30.461 208.627)">
			<ellipse class="st12" cx="2.3" cy="0.9" rx="2.3" ry="0.9"/>
			<ellipse class="st10" cx="2.3" cy="0.9" rx="1.8" ry="0.4"/>
		</g>
		<g id="Oval-5" transform="translate(63.525 204.946)">
			<ellipse class="st12" cx="1.8" cy="0.9" rx="1.8" ry="0.9"/>
			<ellipse class="st10" cx="1.8" cy="0.9" rx="1.3" ry="0.4"/>
		</g>
		<path id="Path_44" class="st13" d="M9.3,223.1c0,0,0.7-40.3,42.2-49.2c41.5-8.9,44.2,11.2,46.9,24.6c2.7,13.4,5.9,29.5-23.7,29.5
			S9.3,223.1,9.3,223.1z"/>
		<path id="Path_45" class="st14" d="M9.3,223.1l6.6,1.4c0,0,6.3-37.4,35.8-43.7s38,0,38,0v-2.8c0,0-18.7-11.1-50.5,0
			C7.3,189.1,9.3,223.1,9.3,223.1z"/>
		<path id="Path_46" class="st14" d="M32.3,205.5l28.4,1c0,0-16.6-3.7-23.5-2.5S32.3,205.5,32.3,205.5z"/>
		<g id="Group_11" transform="translate(191.188 201.265)">
			<g id="Group_10" transform="translate(0 0)">
				<ellipse id="Oval-6" class="st3" cx="29.8" cy="28.5" rx="29.8" ry="28.5"/>
				<ellipse id="Oval-7" class="st3" cx="29.4" cy="27.2" rx="20.2" ry="19.8"/>
				<ellipse id="Oval-8" class="st11" cx="28.9" cy="28.1" rx="15.2" ry="14.3"/>
				<ellipse id="Oval-9" class="st3" cx="28.9" cy="27.6" rx="7.8" ry="7.4"/>
			</g>
			<path id="Path_57" class="st15" d="M29.4,29.7l-4.9-20L17,13.9L29.4,29.7z"/>
		</g>
		<path id="Path_47" class="st14" d="M27.1,214.3c0,0,20,1.8,27.5,0S27.1,214.3,27.1,214.3z"/>
		<path id="Path_48" class="st14" d="M37.4,209.8L66,211c-5.5-1.3-11-2.1-16.7-2.2C45.4,208.7,41.3,209,37.4,209.8z"/>
		<path id="Path_49" class="st14" d="M92.9,214.1c-6,0,0.5,8.4-27.5,10.3c-28,1.9,11.6,2.2,20.2-1S98.9,214.1,92.9,214.1z"/>
		<path id="Path_50" class="st14" d="M87.7,184.9c0,0,6.4,15.8,6.4,18.8c0,3.1,2.9-4.8,1.5-9.4S87.7,184.9,87.7,184.9z"/>
		<path id="Path_52" class="st16" d="M13.7,181.2c0,0,22-21,33.3-21S32.1,159,32.1,159l-18.4,16.3V181.2z"/>
		<path id="Path_53" class="st13" d="M99,213.2l-5.7,9.9c0,0,27,4.8,23.6,3C113.5,224.3,99,213.2,99,213.2z"/>
		<path id="Path_54" class="st13" d="M179.6,125.9c0,0-7.1-0.8-3.6,5.3c3.5,6.1,11.9,20,11.9,34.8c0,14.8-2.1,40.3-8.3,45
			c-6.2,4.6-9.9,9,0-9.4c9.9-18.4-13.4-83.3-13.4-83.3s-7.1-21.9,13.4-20.1c20.5,1.8,3.1,20.1,3.1,20.1h-5.2L179.6,125.9z"/>
		<path id="Path_55" class="st13" d="M190.7,233c0,0,21.9-25.3,43.1-22.5s8.7-17.9,8.7-17.9s-25.5-21.3-41.8-7.7
			c-16.3,13.5-17.9,19.3-21.7,33.7C175.3,233,190.7,233,190.7,233z"/>
		<path id="Path_61" class="st17" d="M124.2,202.4l8.6,4.4l35-59.4c0,0,5.4-8.9-5-10.8c-10.3-1.9-42.5-2.9-42.5-2.9l-2.4,16.3
			c0,0,25.8,4.3,21.1,6.5S124.2,202.4,124.2,202.4z"/>
		<path id="Path_56" class="st16" d="M187.4,231c12.2,0-9.1-14.1,9.6-36.3s40.3-4,40.3-4s-20.5-15.5-36.7-5.7
			c-16.3,9.8-20.2,30.3-20.2,30.3S175.3,231,187.4,231z"/>
		<path id="Path_71" class="st3" d="M161.9,110.5c0,0,0.2,8.1,4.6,7s5.8-2.5,5.8-2.5l3.3-5.4l-4.7-2.8l-6.5-1.1L161.9,110.5z"/>
		<ellipse id="Oval-10" class="st18" cx="185.9" cy="110" rx="6" ry="10.6"/>
		<g id="Group_12" transform="translate(13.066 158.295)">
			<path id="Path_58" class="st18" d="M0.7,16.3c0,0-3-3.8,3-9.4S13.4,0,13.4,0h5.5L0.7,16.3z"/>
			<path id="Oval-11" class="st11" d="M8.1,7.2c3-2.3,5-4.7,4.6-5.3C12.2,1.2,9.4,2.6,6.4,5s-5.1,4.7-4.6,5.3
				C2.3,10.9,5.1,9.5,8.1,7.2z"/>
		</g>
		<path id="Path_59" class="st3" d="M35.1,158.9c0,0-3.2-12.4,11.2-13.6c14.5-1.2,78,0,78,0v13.6H35.1z"/>
		<path id="Path_60" class="st5" d="M73.2,141c0,0,12.8,18.6,34.9,14.7s34.5-7,34.5-7s-3.9,55.1,1.5,56.5c5.4,1.4,8.1,0.8,8.1,0.8
			l4.9-41.3c0,0,13-34.2-2.7-34.2s-41.2-5.8-41.2-5.8l-8.8,1.8L73.2,141z"/>
		<path id="Path_62" class="st19" d="M145.5,206.3c0,0-0.8,4.7,2,4.7c1.5,0,3.1-0.3,4.4-1.1l-1.3-3.1L145.5,206.3z"/>
		<path id="Path_63" class="st19" d="M126.4,204.4l-2.2,5.5c0,0,4.6,1.2,5.8,0c0.8-0.8,1.2-1.9,1.2-3.1L126.4,204.4z"/>
		<path id="Path_64" class="st18" d="M145.3,211c0,0-3.3,4.1,0,4.1c3.3,0,17.6,0.1,17.6,0.1s-3-6.4-8.7-5.3
			C151.3,210.5,148.3,210.9,145.3,211z"/>
		<path id="Path_64_Copy" class="st18" d="M123.9,211c0,0-3.3,4.1,0,4.1c3.3,0,17.6,0.1,17.6,0.1s-3-6.4-8.7-5.3
			C129.9,210.5,126.9,210.9,123.9,211z"/>
		<path id="Path_65" class="st20" d="M73.2,141l18.7-8.8c0,0,54.6,10.1,26.2,21.3C89.6,164.5,73.2,141,73.2,141z"/>
		<path id="Path_66" class="st6" d="M141.7,198.5c-0.7-0.2,0.9,6.3,4.5,7s3.6-1.8,3.6-1.8S142.4,198.8,141.7,198.5z"/>
		<path id="Path_69" class="st10" d="M102.9,92.6c0,0,6.4,21.4,8.5,18.6c1.2-1.6,2.6-3.1,4.1-4.3L102.9,92.6z"/>
		<path id="Path_70" class="st19" d="M159.8,109.1c0,0,0.2,2.3,3.1,0c2.9-2.3,5-2.3,5-2.3s3.5,2.4,3.5,5.5c0,3.2,3-3.2,3-3.2
			c0.4-2.3-1.2-4.5-3.5-4.9c-0.4-0.1-0.8-0.1-1.1,0h-7.9L159.8,109.1z"/>
		<path id="Path_73" class="st21" d="M100.5,43.5c-7.7-6.2-19.1-12.1-12.8-25c6.4-12.9,12.7-21.9,21.5-17.4s22.2,2.4,22.2,2.4
			s13.6,8.6,5,14.9s-27.2,17.2-27.2,17.2S108.2,49.7,100.5,43.5z"/>
		<path id="Path_72" class="st19" d="M131.4,22.7c0,0-0.3,30.2-9.1,30.2S102.9,43,102.9,43s2.4-4.2,0-7.5c-2.4-3.3,0.4-12.8,3.4-6.4
			s5.2,4.4,5.2,4.4l2.1-10.9H131.4z"/>
		<path id="Path_74" class="st19" d="M95.3,52.9c0,0,7.9-8.7,6.7-11.3c-1.3-2.6,13.6,5.7,13.6,5.7s-6.3,8-6.3,16.9
			S95.3,52.9,95.3,52.9z"/>
		<path id="Path_67" class="st18" d="M95.6,50.7l15.7,11.4l20.6,39.2l27.5,2.9c0,0,3.4,0,0,4.1c-3.4,4.1-28.1,14-37.1,4
			s-8.3,0-8.3,0v10L73.2,141c0,0-8.3-4.9-7.1-28.6s23.6-59.2,23.6-59.2L95.6,50.7z"/>
		<path id="Path_68" class="st22" d="M75.5,83c14.8-12.8,8.1,44.3,14.1,46c6,1.7-4.3,8.5-14.1,12S60.7,95.8,75.5,83z"/>
		
			<ellipse id="Oval-12" transform="matrix(0.9994 -3.501355e-02 3.501355e-02 0.9994 -3.7706 6.482)" class="st11" cx="183.2" cy="110.9" rx="2.3" ry="5.1"/>
	</g>
</g>
</svg>
