<?xml version="1.0" encoding="utf-8"?>
<!-- Generator: Adobe Illustrator 24.2.0, SVG Export Plug-In . SVG Version: 6.00 Build 0)  -->
<svg version="1.1" id="Layer_1" xmlns="http://www.w3.org/2000/svg" xmlns:xlink="http://www.w3.org/1999/xlink" x="0px" y="0px"
	 viewBox="0 0 330 380" style="enable-background:new 0 0 330 380;" xml:space="preserve">
<style type="text/css">
	.st0{opacity:0.36;fill:#D3F9D9;enable-background:new    ;}
	.st1{clip-path:url(#SVGID_2_);}
	.st2{fill:#6D7278;}
	.st3{fill:#FFFFFF;}
	.st4{fill:none;stroke:#979797;stroke-miterlimit:10;}
	.st5{fill:none;}
	.st6{fill:#E02020;}
	.st7{fill:#D8D8D8;}
	.st8{fill:#715960;}
	.st9{fill:#FEC0C4;}
	.st10{fill:#DF91C3;}
	.st11{fill:#FDF8F8;}
	.st12{fill:#B9B7ED;}
	.st13{fill:#F9C4C7;}
	.st14{fill:#6236FF;}
	.st15{fill:#6E6666;stroke:#979797;stroke-miterlimit:10;}
	.st16{fill:#D8D8D8;stroke:#979797;stroke-miterlimit:10;}
	.st17{enable-background:new    ;}
	.st18{fill:#709B78;}
</style>
<g id="shop" transform="translate(-23 -50)">
	<path id="Path_11" class="st0" d="M68,224.8c0,0-18.3-129.5,104.3-95.9s136.3,24.1,136.3,72.9S192.1,351,142.4,351
		S68,224.8,68,224.8z"/>
	<g>
		<defs>
			<rect id="SVGID_1_" x="23" y="50" width="330" height="380"/>
		</defs>
		<clipPath id="SVGID_2_">
			<use xlink:href="#SVGID_1_"  style="overflow:visible;"/>
		</clipPath>
		<g id="Mask_Group_6" class="st1">
			<g id="Group_7" transform="translate(191.049 161)">
				<path id="Triangle" class="st2" d="M4.3,2.6l27.6,18.9L19.5,32.2L4.3,2.6z"/>
				<g id="Rectangle" transform="translate(18.184 20.224)">
					<path class="st3" d="M13,0h69.8c7.2,0,13,5.8,13,13v59.8c0,7.2-5.8,13-13,13H13c-7.2,0-13-5.8-13-13V13C0,5.8,5.8,0,13,0z"/>
					<path class="st4" d="M13,0.5h69.8c6.9,0,12.5,5.6,12.5,12.5v59.8c0,6.9-5.6,12.5-12.5,12.5H13c-6.9,0-12.5-5.6-12.5-12.5V13
						C0.5,6.1,6.1,0.5,13,0.5z"/>
				</g>
				<g id="Rectangle-2" transform="translate(26.577 35.566)">
					<rect x="0" y="0" class="st5" width="10.5" height="10.5"/>
					<rect x="0.5" y="0.5" class="st4" width="9.5" height="9.5"/>
				</g>
				<g id="Rectangle-3" transform="translate(26.577 48.118)">
					<rect x="0" y="0" class="st5" width="10.5" height="10.5"/>
					<rect x="0.5" y="0.5" class="st4" width="9.5" height="9.5"/>
				</g>
				<g id="Rectangle-4" transform="translate(26.577 60.671)">
					<rect x="0" y="0" class="st5" width="10.5" height="10.5"/>
					<rect x="0.5" y="0.5" class="st4" width="9.5" height="9.5"/>
				</g>
				<g id="Rectangle-5" transform="translate(26.577 73.224)">
					<rect x="0" y="0" class="st5" width="10.5" height="10.5"/>
					<rect x="0.5" y="0.5" class="st4" width="9.5" height="9.5"/>
				</g>
				<g id="Rectangle-6" transform="translate(26.577 85.776)">
					<rect x="0" y="0" class="st5" width="10.5" height="10.5"/>
					<rect x="0.5" y="0.5" class="st4" width="9.5" height="9.5"/>
				</g>
				<g id="Group" transform="translate(28.675 45.451)">
					<path id="Triangle-2" class="st6" d="M1.5,8.9l11.1-8.5l0.8,1.2L1.5,8.9z"/>
					<path id="Rectangle-7" class="st6" d="M0.2,7.2l0.6-0.4l1.2,1.7L1.4,9L0.2,7.2z"/>
				</g>
				<g id="Group_Copy" transform="translate(28.675 58.579)">
					<path id="Triangle-3" class="st6" d="M1.5,8.9l11.1-8.5l0.8,1.2L1.5,8.9z"/>
					<path id="Rectangle-8" class="st6" d="M0.2,7.2l0.6-0.4l1.2,1.7L1.4,9L0.2,7.2z"/>
				</g>
				<g id="Group_Copy_2" transform="translate(28.675 33.474)">
					<path id="Triangle-4" class="st6" d="M1.5,8.9l11.1-8.5l0.8,1.2L1.5,8.9z"/>
					<path id="Rectangle-9" class="st6" d="M0.2,7.2l0.6-0.4l1.2,1.7L1.4,9L0.2,7.2z"/>
				</g>
				<rect id="Rectangle-10" x="47.6" y="37" class="st7" width="56.7" height="7"/>
				<rect id="Rectangle_Copy_2" x="47.6" y="49.5" class="st7" width="56.7" height="7"/>
				<rect id="Rectangle_Copy_3" x="47.6" y="62.1" class="st7" width="56.7" height="7"/>
				<rect id="Rectangle_Copy_4" x="47.6" y="74.6" class="st7" width="56.7" height="7"/>
				<rect id="Rectangle_Copy_5" x="47.6" y="87.2" class="st7" width="56.7" height="7"/>
			</g>
			<g id="Group_2" transform="translate(65.05 83.5)">
				<g id="Group_5">
					<path id="Path_28" class="st8" d="M-18.8,85.1c0,0,4.6-25.1,20.1-32.1S1.8,37.1,17,19.5s40.2-18.8,50.7,5S32.7,70,32.7,70
						s-10.1,22,17.2,45.4s-6.4,82-6.4,82s-24.1-1-44.7-41S-18.8,85.1-18.8,85.1z"/>
					<path id="Path_34" class="st9" d="M59.3,145.9c0,0,12.5,8.8,18.2,3.7s21.8-30.1,21.8-30.1l16.3-24.2c0,0-4.1-7.9-6.2-7.9
						s-22,21.9-22,21.9s-17.4,14-19.4,18.2c-2,4.1-16.2-10-16.2-10l4.3,29.4L59.3,145.9z"/>
					<path id="Path_33" class="st10" d="M43.5,181.7c0,0,14.7-6.3,14.7-21.4c0-15.1-1-25.7,1.4-31c2.3-5.3-3.4-11.7-3.4-11.7
						L43.5,181.7z"/>
					<path id="Path_31" class="st11" d="M47.2,93.4c0.9-1.8,14.8,24.9,11.6,34.1s-6.3,12.3-5.9,23c0.4,10.7,2.7,43,2.7,43
						S50,206.3,31,198.1s-15.5,2.4-15.5,2.4L34.9,98.8c0,0-1.5-8,3.3-3.6C43.1,99.5,46.3,95.2,47.2,93.4z"/>
					<path id="Path_35" class="st12" d="M10.1,189.1c0,0-17.4,16.5-4.9,45.9s27.5,58.6,27.5,58.6l35.7-7.6l-9.1-66.6l0.2-24.8
						l-3.4-4.5v-7L10.1,189.1z"/>
					<path id="Path_25" class="st9" d="M21,66.1L25.5,48c0,0-3-12.2,1.8-12.2S34,48,34,48s1.6,10.3,0,14.2
						c-1.6,3.9,5.8,0.3,2.1-29.3s-2.1,3-2.1,3s3-6.2,9.7-8s12.5-8.2,12.5-8.2s7.1,4.4,7.1,11.7s-2.9,30-14.1,36.1
						s-10.9,2.2-10.9,2.2s5.3,20.8,7.7,22.4s-3.1,6.8-4.8,4.2S40,92.1,40,92.1L21,66.1z"/>
					<path id="Path_26" class="st13" d="M54.6,44c-1.3,3.2-3.6,10.7,0,10.7s5.9-1.9,4.4-3.6c-1.5-1.7,1.2-5.2,0-7.1
						C57.9,42.1,56,40.7,54.6,44z"/>
					<path id="Path_27" class="st13" d="M23.6,54.7c0,0,4.4,10.1,5.6,10.1s3.1,12.8,5.8,14c2.7,1.2-2.8,2.7-2.8,2.7L21.4,66
						L23.6,54.7z"/>
					<path id="Path_29" class="st10" d="M3.4,178.7v4.2c0,0,28.2,1.5,42.9-5.9c14.7-7.4-3.2-30.3-3.2-30.3s-0.6-9.2,1.3-14.1
						c1.9-4.9,1.2-27.4-2.3-31.5c-2-2.5-2.8-5.8-2.1-9L21,64.8c0,0-7,0-7,9.8S1.4,83.9,2.4,97.1S3.4,178.7,3.4,178.7z"/>
					<path id="Path_30" class="st9" d="M17.7,81.4c22.2,6,9.9,33.7,9.9,31.8c0-1.9-8.7,44.9-8.7,44.9s7.2,55.1,7.2,63.9
						s-7.2,10.5-7.2,10.5L5.7,189.8l-4.4-26.7C1.2,163.1-4.5,75.4,17.7,81.4z"/>
					<path id="Path_32" class="st10" d="M40.5,76.9c0,0,12.3,15.9,11.2,24.8c-1.2,8.9-13.2-22.2-13.2-22.2L40.5,76.9z"/>
					<path id="Path_36" class="st14" d="M12.3,235.8c0.3,1.6,5.4-3.3,5.4-3.3s0-6-1.4-7C15,224.5,12,234.2,12.3,235.8z"/>
					<path id="Path_37" class="st14" d="M26.3,214.5v6.7l3.6-8.1L26.3,214.5z"/>
					<path id="Path_38" class="st14" d="M12.9,241.3c0,0,13.5,16.7,23.6,12.5c10.1-4.2-2.2,4.6-7.5,4
						C23.5,257.3,12.9,241.3,12.9,241.3z"/>
					<path id="Path_39" class="st12" d="M57.2,181.7l40.6,79.6L64,282l-14.6-94L57.2,181.7z"/>
					<path id="Path_40" class="st14" d="M63.6,242.5c0,0,5.2,22.5,8.4,25.2c3.2,2.6,1.7,7.3,1.7,7.3l-7,4.2L63.6,242.5z"/>
					<path id="Path_43" class="st9" d="M104.6,93.4l6.2-9.5c0,0-1.4-9.5,1.7-11.6c1.9-1.2,4.1-1.8,6.3-1.7l6.4-2.1l1,3.8
						c0,0,2.4,11.1-2,14.6c-4.4,3.5-15.7,14.4-15.7,14.4L104.6,93.4z"/>
					<g id="Group_4" transform="translate(117.283 44.185)">
						<path id="Path_41" class="st15" d="M0,32.8l3.1,7.3l2.7,0.8L18.9,2.8c0,0,0.8-2.8-2.6-2.8c-2.2,0.2-4.3,1.2-5.8,2.8L0,32.8z"
							/>
						<path id="Path_42" class="st16" d="M4.2,36.5l10.5-33l-3.2,0.9L1.8,31.8L4.2,36.5z"/>
					</g>
				</g>
				<rect id="Rectangle-11" x="26.4" y="15.3" class="st8" width="9.7" height="20.2"/>
			</g>
		</g>
	</g>
	<g class="st17">
		<path class="st18" d="M199.8,377H198l-6.5-10c-0.2-0.3-0.3-0.5-0.4-0.8h-0.1c0,0.3,0.1,0.8,0.1,1.7v9.1h-1.5v-12.6h1.9l6.3,9.9
			c0.3,0.4,0.4,0.7,0.5,0.8h0c-0.1-0.4-0.1-1-0.1-1.9v-8.9h1.5V377z"/>
		<path class="st18" d="M210.6,372.9h-6.4c0,1,0.3,1.8,0.8,2.3s1.2,0.8,2.1,0.8c1,0,1.9-0.3,2.8-1v1.4c-0.8,0.6-1.8,0.9-3.1,0.9
			c-1.3,0-2.3-0.4-3-1.2c-0.7-0.8-1.1-2-1.1-3.4c0-1.4,0.4-2.5,1.2-3.4c0.8-0.9,1.8-1.3,3-1.3s2.1,0.4,2.7,1.1s1,1.8,1,3.2V372.9z
			 M209.1,371.6c0-0.8-0.2-1.5-0.6-1.9c-0.4-0.5-0.9-0.7-1.6-0.7c-0.7,0-1.3,0.2-1.7,0.7s-0.8,1.1-0.9,1.9H209.1z"/>
		<path class="st18" d="M220.5,372.9h-6.4c0,1,0.3,1.8,0.8,2.3s1.2,0.8,2.1,0.8c1,0,1.9-0.3,2.8-1v1.4c-0.8,0.6-1.8,0.9-3.1,0.9
			c-1.3,0-2.3-0.4-3-1.2c-0.7-0.8-1.1-2-1.1-3.4c0-1.4,0.4-2.5,1.2-3.4c0.8-0.9,1.8-1.3,3-1.3s2.1,0.4,2.7,1.1s1,1.8,1,3.2V372.9z
			 M219,371.6c0-0.8-0.2-1.5-0.6-1.9s-0.9-0.7-1.6-0.7c-0.7,0-1.3,0.2-1.7,0.7s-0.8,1.1-0.9,1.9H219z"/>
		<path class="st18" d="M230.8,377h-1.4v-1.5h0c-0.7,1.2-1.7,1.7-3.1,1.7c-1.1,0-2-0.4-2.7-1.2c-0.7-0.8-1-1.9-1-3.3
			c0-1.5,0.4-2.7,1.1-3.6s1.8-1.3,3-1.3c1.2,0,2.1,0.5,2.7,1.5h0v-5.6h1.4V377z M229.3,372.9v-1.3c0-0.7-0.2-1.3-0.7-1.8
			s-1.1-0.8-1.8-0.8c-0.9,0-1.6,0.3-2.1,1s-0.8,1.5-0.8,2.7c0,1,0.2,1.9,0.7,2.5s1.1,0.9,1.9,0.9c0.8,0,1.5-0.3,2-0.9
			S229.3,373.8,229.3,372.9z"/>
		<path class="st18" d="M239.1,376.5v-1.7c0.2,0.2,0.4,0.3,0.7,0.5c0.3,0.1,0.6,0.3,0.9,0.4c0.3,0.1,0.6,0.2,0.9,0.2
			s0.6,0.1,0.9,0.1c0.9,0,1.6-0.2,2-0.5c0.4-0.3,0.7-0.8,0.7-1.5c0-0.3-0.1-0.6-0.2-0.9c-0.2-0.3-0.4-0.5-0.6-0.7
			c-0.3-0.2-0.6-0.4-0.9-0.6c-0.4-0.2-0.7-0.4-1.2-0.6c-0.4-0.2-0.8-0.4-1.2-0.7s-0.7-0.5-1-0.8s-0.5-0.6-0.7-0.9
			c-0.2-0.3-0.2-0.8-0.2-1.2c0-0.6,0.1-1.1,0.4-1.5c0.3-0.4,0.6-0.8,1-1s0.9-0.5,1.4-0.6c0.5-0.1,1.1-0.2,1.6-0.2
			c1.2,0,2.1,0.1,2.7,0.4v1.7c-0.7-0.5-1.7-0.8-2.9-0.8c-0.3,0-0.6,0-1,0.1s-0.6,0.2-0.9,0.3s-0.5,0.3-0.6,0.6s-0.2,0.5-0.2,0.9
			c0,0.3,0.1,0.6,0.2,0.8c0.1,0.2,0.3,0.4,0.5,0.6s0.5,0.4,0.9,0.6c0.3,0.2,0.7,0.4,1.2,0.6c0.5,0.2,0.9,0.5,1.3,0.7
			s0.8,0.5,1.1,0.8s0.5,0.6,0.7,1c0.2,0.4,0.3,0.8,0.3,1.2c0,0.6-0.1,1.1-0.4,1.6c-0.2,0.4-0.6,0.8-1,1c-0.4,0.3-0.9,0.5-1.4,0.6
			c-0.5,0.1-1.1,0.2-1.7,0.2c-0.2,0-0.4,0-0.7,0s-0.6-0.1-0.9-0.1c-0.3-0.1-0.6-0.1-0.9-0.2C239.5,376.7,239.3,376.6,239.1,376.5z"
			/>
		<path class="st18" d="M257,377h-1.4v-5.2c0-1.9-0.7-2.8-2.1-2.8c-0.7,0-1.3,0.3-1.8,0.8c-0.5,0.5-0.7,1.2-0.7,2.1v5.1h-1.4v-13.3
			h1.4v5.8h0c0.7-1.1,1.7-1.7,3-1.7c2,0,3,1.2,3,3.7V377z"/>
		<path class="st18" d="M263.9,377.2c-1.3,0-2.4-0.4-3.2-1.3c-0.8-0.8-1.2-2-1.2-3.3c0-1.5,0.4-2.7,1.2-3.5s1.9-1.3,3.3-1.3
			c1.3,0,2.4,0.4,3.1,1.2s1.1,2,1.1,3.4c0,1.4-0.4,2.6-1.2,3.4C266.4,376.8,265.3,377.2,263.9,377.2z M264,369
			c-0.9,0-1.7,0.3-2.2,0.9s-0.8,1.5-0.8,2.6c0,1.1,0.3,1.9,0.8,2.5s1.3,0.9,2.2,0.9c0.9,0,1.6-0.3,2.1-0.9s0.8-1.5,0.8-2.6
			c0-1.1-0.3-2-0.8-2.6S265,369,264,369z"/>
		<path class="st18" d="M272.7,375.7L272.7,375.7l0,5.4h-1.4V368h1.4v1.6h0c0.7-1.2,1.7-1.8,3.1-1.8c1.2,0,2.1,0.4,2.7,1.2
			s1,1.9,1,3.2c0,1.5-0.4,2.7-1.1,3.6c-0.7,0.9-1.7,1.4-3,1.4C274.2,377.2,273.3,376.7,272.7,375.7z M272.6,372.1v1.3
			c0,0.7,0.2,1.4,0.7,1.9c0.5,0.5,1.1,0.8,1.8,0.8c0.9,0,1.6-0.3,2.1-1s0.7-1.6,0.7-2.8c0-1-0.2-1.8-0.7-2.4s-1.1-0.9-1.9-0.9
			c-0.8,0-1.5,0.3-2,0.9S272.6,371.2,272.6,372.1z"/>
		<path class="st18" d="M283.7,375.7L283.7,375.7l0,5.4h-1.4V368h1.4v1.6h0c0.7-1.2,1.7-1.8,3.1-1.8c1.2,0,2.1,0.4,2.7,1.2
			s1,1.9,1,3.2c0,1.5-0.4,2.7-1.1,3.6c-0.7,0.9-1.7,1.4-3,1.4C285.2,377.2,284.3,376.7,283.7,375.7z M283.6,372.1v1.3
			c0,0.7,0.2,1.4,0.7,1.9c0.5,0.5,1.1,0.8,1.8,0.8c0.9,0,1.6-0.3,2.1-1c0.5-0.7,0.7-1.6,0.7-2.8c0-1-0.2-1.8-0.7-2.4
			s-1.1-0.9-1.9-0.9c-0.8,0-1.5,0.3-2,0.9S283.6,371.2,283.6,372.1z"/>
		<path class="st18" d="M294,365.7c-0.3,0-0.5-0.1-0.7-0.3s-0.3-0.4-0.3-0.7s0.1-0.5,0.3-0.7s0.4-0.3,0.7-0.3c0.3,0,0.5,0.1,0.7,0.3
			c0.2,0.2,0.3,0.4,0.3,0.7c0,0.3-0.1,0.5-0.3,0.7C294.5,365.6,294.2,365.7,294,365.7z M294.7,377h-1.4v-9h1.4V377z"/>
		<path class="st18" d="M305.5,377h-1.4v-5.1c0-1.9-0.7-2.9-2.1-2.9c-0.7,0-1.3,0.3-1.8,0.8c-0.5,0.5-0.7,1.2-0.7,2.1v5.1H298v-9
			h1.4v1.5h0c0.7-1.1,1.7-1.7,3-1.7c1,0,1.7,0.3,2.3,1c0.5,0.6,0.8,1.6,0.8,2.8V377z"/>
		<path class="st18" d="M316.4,376.3c0,3.3-1.6,5-4.7,5c-1.1,0-2.1-0.2-2.9-0.6v-1.4c1,0.6,2,0.8,2.9,0.8c2.2,0,3.3-1.2,3.3-3.5v-1
			h0c-0.7,1.1-1.7,1.7-3.1,1.7c-1.1,0-2-0.4-2.7-1.2c-0.7-0.8-1-1.9-1-3.2c0-1.5,0.4-2.7,1.1-3.6s1.7-1.4,3-1.4
			c1.2,0,2.1,0.5,2.7,1.5h0V368h1.4V376.3z M314.9,372.9v-1.3c0-0.7-0.2-1.3-0.7-1.8s-1.1-0.8-1.8-0.8c-0.9,0-1.6,0.3-2.1,1
			c-0.5,0.6-0.8,1.6-0.8,2.7c0,1,0.2,1.8,0.7,2.4s1.1,0.9,1.9,0.9c0.8,0,1.5-0.3,2-0.9S314.9,373.8,314.9,372.9z"/>
		<path class="st18" d="M321.2,373.5c-0.1-0.2-0.1-0.3-0.1-0.6c0-0.2-0.1-0.5-0.1-0.7c0-0.4,0.1-0.7,0.2-1c0.1-0.3,0.3-0.6,0.6-0.8
			s0.5-0.5,0.7-0.8s0.5-0.5,0.7-0.7s0.4-0.5,0.6-0.8c0.1-0.3,0.2-0.6,0.2-0.9c0-0.3-0.1-0.5-0.2-0.7s-0.3-0.4-0.4-0.5
			s-0.4-0.3-0.7-0.3s-0.5-0.1-0.8-0.1c-1,0-1.8,0.4-2.6,1.2V365c0.9-0.6,1.8-0.8,2.8-0.8c0.4,0,0.9,0.1,1.3,0.2s0.7,0.3,1,0.5
			s0.5,0.5,0.7,0.9s0.3,0.7,0.3,1.2c0,0.4-0.1,0.8-0.2,1.2s-0.3,0.7-0.6,0.9s-0.5,0.5-0.8,0.8s-0.5,0.5-0.8,0.7s-0.4,0.5-0.6,0.8
			s-0.2,0.6-0.2,0.9c0,0.3,0,0.5,0.1,0.7c0.1,0.2,0.1,0.4,0.2,0.6H321.2z M322,377.2c-0.3,0-0.5-0.1-0.7-0.3
			c-0.2-0.2-0.3-0.4-0.3-0.7c0-0.3,0.1-0.5,0.3-0.7c0.2-0.2,0.4-0.3,0.7-0.3s0.5,0.1,0.7,0.3c0.2,0.2,0.3,0.4,0.3,0.7
			c0,0.3-0.1,0.5-0.3,0.7C322.5,377.1,322.3,377.2,322,377.2z"/>
	</g>
	<g class="st17">
		<path class="st18" d="M199.4,421h-1.6l-1.3-3.5h-5.3l-1.3,3.5h-1.6l4.8-12.6h1.5L199.4,421z M196,416.1l-2-5.4
			c-0.1-0.2-0.1-0.5-0.2-0.8h0c-0.1,0.4-0.1,0.6-0.2,0.8l-2,5.4H196z"/>
		<path class="st18" d="M201,420.7v-1.5c0.8,0.6,1.6,0.9,2.6,0.9c1.3,0,1.9-0.4,1.9-1.3c0-0.2-0.1-0.4-0.2-0.6
			c-0.1-0.2-0.3-0.3-0.4-0.4c-0.2-0.1-0.4-0.2-0.7-0.3c-0.2-0.1-0.5-0.2-0.8-0.3c-0.4-0.2-0.7-0.3-1-0.5c-0.3-0.2-0.6-0.3-0.8-0.5
			c-0.2-0.2-0.4-0.4-0.5-0.7c-0.1-0.3-0.2-0.6-0.2-0.9c0-0.4,0.1-0.8,0.3-1.1c0.2-0.3,0.5-0.6,0.8-0.8c0.3-0.2,0.7-0.4,1.1-0.5
			c0.4-0.1,0.8-0.2,1.3-0.2c0.8,0,1.5,0.1,2.1,0.4v1.5c-0.7-0.4-1.4-0.7-2.3-0.7c-0.3,0-0.5,0-0.7,0.1c-0.2,0.1-0.4,0.1-0.6,0.3
			c-0.2,0.1-0.3,0.2-0.4,0.4c-0.1,0.2-0.1,0.3-0.1,0.5c0,0.2,0,0.4,0.1,0.6c0.1,0.2,0.2,0.3,0.4,0.4s0.4,0.2,0.6,0.3
			s0.5,0.2,0.8,0.3c0.4,0.2,0.8,0.3,1.1,0.5s0.6,0.3,0.8,0.5c0.2,0.2,0.4,0.4,0.5,0.7c0.1,0.3,0.2,0.6,0.2,0.9
			c0,0.4-0.1,0.8-0.3,1.2c-0.2,0.3-0.5,0.6-0.8,0.8s-0.7,0.4-1.1,0.5s-0.9,0.2-1.3,0.2C202.5,421.2,201.7,421,201,420.7z"/>
		<path class="st18" d="M217.1,421h-2l-4-4.3h0v4.3h-1.4v-13.3h1.4v8.4h0l3.8-4.1h1.9l-4.2,4.3L217.1,421z"/>
		<path class="st18" d="M230.8,421h-1.4v-1.4h0c-0.6,1.1-1.5,1.6-2.8,1.6c-0.9,0-1.6-0.2-2.1-0.7c-0.5-0.5-0.8-1.1-0.8-1.9
			c0-1.7,1-2.7,3-2.9l2.7-0.4c0-1.5-0.6-2.3-1.9-2.3c-1.1,0-2.1,0.4-2.9,1.1v-1.5c0.9-0.6,1.9-0.8,3.1-0.8c2.1,0,3.2,1.1,3.2,3.4
			V421z M229.4,416.4l-2.2,0.3c-0.7,0.1-1.2,0.3-1.5,0.5c-0.3,0.2-0.5,0.7-0.5,1.3c0,0.4,0.2,0.8,0.5,1.1c0.3,0.3,0.7,0.4,1.3,0.4
			c0.7,0,1.3-0.3,1.8-0.8c0.5-0.5,0.7-1.1,0.7-1.9V416.4z"/>
	</g>
	<g class="st17">
		<path class="st18" d="M254,398.5h-9.8v8.7h9.1v2.7h-9.1V421h-3v-25.2H254V398.5z"/>
		<path class="st18" d="M271,421h-2.9v-2.8H268c-1.3,2.2-3.1,3.2-5.5,3.2c-1.8,0-3.2-0.5-4.2-1.4s-1.5-2.2-1.5-3.8
			c0-3.4,2-5.3,5.9-5.9l5.4-0.8c0-3.1-1.2-4.6-3.7-4.6c-2.2,0-4.1,0.7-5.9,2.2v-3c1.8-1.1,3.8-1.7,6.1-1.7c4.2,0,6.3,2.2,6.3,6.7
			V421z M268.1,411.9l-4.3,0.6c-1.3,0.2-2.3,0.5-3,1s-1,1.3-1,2.5c0,0.9,0.3,1.6,0.9,2.2s1.5,0.8,2.5,0.8c1.4,0,2.6-0.5,3.5-1.5
			s1.4-2.3,1.4-3.8V411.9z"/>
		<path class="st18" d="M291.4,403l-7.2,18h-2.8l-6.8-18h3.2l4.6,13.1c0.3,1,0.6,1.8,0.6,2.5h0.1c0.1-0.9,0.3-1.7,0.6-2.4l4.8-13.1
			H291.4z"/>
		<path class="st18" d="M313.9,421h-3.5l-4.2-7.1c-0.4-0.7-0.8-1.2-1.1-1.7s-0.7-0.8-1.1-1.1s-0.8-0.5-1.2-0.6s-0.9-0.2-1.5-0.2
			h-2.4V421h-3v-25.2h7.5c1.1,0,2.1,0.1,3,0.4s1.7,0.7,2.4,1.3s1.2,1.3,1.6,2.1s0.6,1.8,0.6,2.9c0,0.9-0.1,1.7-0.4,2.4
			s-0.6,1.4-1.1,2s-1.1,1.1-1.8,1.5s-1.5,0.7-2.3,0.9v0.1c0.4,0.2,0.8,0.4,1.1,0.6s0.6,0.5,0.9,0.9s0.6,0.7,0.8,1.1s0.6,0.9,0.9,1.5
			L313.9,421z M298.8,398.5v9.1h4c0.7,0,1.4-0.1,2-0.3s1.2-0.5,1.6-1s0.8-0.9,1.1-1.5s0.4-1.3,0.4-2c0-1.3-0.4-2.4-1.3-3.2
			s-2.1-1.1-3.8-1.1H298.8z"/>
	</g>
</g>
</svg>
