<?xml version="1.0" encoding="utf-8"?>
<!-- Generator: Adobe Illustrator 24.2.0, SVG Export Plug-In . SVG Version: 6.00 Build 0)  -->
<svg version="1.1" id="Layer_1" xmlns="http://www.w3.org/2000/svg" xmlns:xlink="http://www.w3.org/1999/xlink" x="0px" y="0px"
	 viewBox="0 0 302.2 177.1" style="enable-background:new 0 0 302.2 177.1;" xml:space="preserve">
<style type="text/css">
	.st0{enable-background:new    ;}
	.st1{fill:#709B78;}
	.st2{fill:#715960;}
	.st3{fill:#FEC0C4;}
	.st4{fill:#DF91C3;}
	.st5{fill:#FDF8F8;}
	.st6{fill:#B9B7ED;}
	.st7{fill:#F9C4C7;}
	.st8{fill:#6236FF;}
	.st9{fill:#6E6666;stroke:#979797;stroke-miterlimit:10;}
	.st10{fill:#D8D8D8;stroke:#979797;stroke-miterlimit:10;}
</style>
<g id="start-shopping" transform="translate(-36.837 -147.027)">
	<g class="st0">
		<path class="st1" d="M189.1,197.5v-1.7c0.2,0.2,0.4,0.3,0.7,0.5s0.6,0.3,0.9,0.4c0.3,0.1,0.6,0.2,0.9,0.2s0.6,0.1,0.9,0.1
			c0.9,0,1.6-0.2,2-0.5s0.7-0.8,0.7-1.5c0-0.3-0.1-0.6-0.2-0.9s-0.4-0.5-0.6-0.7c-0.3-0.2-0.6-0.4-0.9-0.6c-0.4-0.2-0.7-0.4-1.2-0.6
			c-0.4-0.2-0.8-0.4-1.2-0.7s-0.7-0.5-1-0.8s-0.5-0.6-0.7-0.9c-0.2-0.3-0.2-0.8-0.2-1.2c0-0.6,0.1-1.1,0.4-1.5c0.3-0.4,0.6-0.8,1-1
			s0.9-0.5,1.4-0.6s1.1-0.2,1.6-0.2c1.2,0,2.1,0.1,2.7,0.4v1.7c-0.7-0.5-1.7-0.8-2.9-0.8c-0.3,0-0.6,0-1,0.1s-0.6,0.2-0.9,0.3
			s-0.5,0.3-0.6,0.6s-0.2,0.5-0.2,0.9c0,0.3,0.1,0.6,0.2,0.8s0.3,0.4,0.5,0.6s0.5,0.4,0.9,0.6s0.7,0.4,1.2,0.6
			c0.5,0.2,0.9,0.5,1.3,0.7s0.8,0.5,1.1,0.8s0.5,0.6,0.7,1s0.3,0.8,0.3,1.2c0,0.6-0.1,1.1-0.4,1.6c-0.2,0.4-0.6,0.8-1,1
			s-0.9,0.5-1.4,0.6c-0.5,0.1-1.1,0.2-1.7,0.2c-0.2,0-0.4,0-0.7,0s-0.6-0.1-0.9-0.1c-0.3-0.1-0.6-0.1-0.9-0.2
			C189.4,197.7,189.2,197.6,189.1,197.5z"/>
		<path class="st1" d="M203.1,197.9c-0.3,0.2-0.8,0.3-1.3,0.3c-1.6,0-2.4-0.9-2.4-2.6v-5.3h-1.5V189h1.5v-2.2l1.4-0.5v2.7h2.3v1.2
			h-2.3v5.1c0,0.6,0.1,1,0.3,1.3s0.5,0.4,1,0.4c0.4,0,0.7-0.1,0.9-0.3V197.9z"/>
		<path class="st1" d="M211.9,198h-1.4v-1.4h0c-0.6,1.1-1.5,1.6-2.8,1.6c-0.9,0-1.6-0.2-2.1-0.7s-0.8-1.1-0.8-1.9c0-1.7,1-2.7,3-2.9
			l2.7-0.4c0-1.5-0.6-2.3-1.9-2.3c-1.1,0-2.1,0.4-2.9,1.1v-1.5c0.9-0.6,1.9-0.8,3.1-0.8c2.1,0,3.2,1.1,3.2,3.4V198z M210.4,193.4
			l-2.2,0.3c-0.7,0.1-1.2,0.3-1.5,0.5c-0.3,0.2-0.5,0.7-0.5,1.3c0,0.4,0.2,0.8,0.5,1.1c0.3,0.3,0.7,0.4,1.3,0.4
			c0.7,0,1.3-0.3,1.8-0.8c0.5-0.5,0.7-1.1,0.7-1.9V193.4z"/>
		<path class="st1" d="M219.7,190.5c-0.3-0.2-0.6-0.3-1.1-0.3c-0.6,0-1.1,0.3-1.5,0.9s-0.6,1.4-0.6,2.4v4.6H215v-9h1.4v1.9h0
			c0.2-0.6,0.5-1.1,0.9-1.5c0.4-0.4,0.9-0.5,1.4-0.5c0.4,0,0.7,0,0.9,0.1V190.5z"/>
		<path class="st1" d="M225.9,197.9c-0.3,0.2-0.8,0.3-1.3,0.3c-1.6,0-2.4-0.9-2.4-2.6v-5.3h-1.5V189h1.5v-2.2l1.4-0.5v2.7h2.3v1.2
			h-2.3v5.1c0,0.6,0.1,1,0.3,1.3s0.5,0.4,1,0.4c0.4,0,0.7-0.1,0.9-0.3V197.9z"/>
	</g>
	<g class="st0">
		<path class="st1" d="M233.6,197.3V195c0.3,0.2,0.6,0.4,1,0.6s0.8,0.3,1.2,0.5s0.8,0.2,1.2,0.3s0.8,0.1,1.1,0.1
			c1.2,0,2.1-0.2,2.7-0.7s0.9-1.1,0.9-1.9c0-0.5-0.1-0.8-0.3-1.2s-0.5-0.6-0.8-0.9s-0.8-0.5-1.2-0.8s-1-0.5-1.6-0.8
			c-0.6-0.3-1.1-0.6-1.6-0.9s-0.9-0.6-1.3-1s-0.7-0.8-0.9-1.2s-0.3-1-0.3-1.6c0-0.8,0.2-1.4,0.5-2s0.8-1,1.3-1.4s1.2-0.6,1.9-0.8
			s1.4-0.3,2.1-0.3c1.7,0,2.9,0.2,3.6,0.6v2.2c-1-0.7-2.3-1-3.8-1c-0.4,0-0.9,0-1.3,0.1s-0.8,0.2-1.1,0.4s-0.6,0.5-0.8,0.8
			s-0.3,0.7-0.3,1.2c0,0.4,0.1,0.8,0.2,1.1s0.4,0.6,0.7,0.9s0.7,0.5,1.1,0.8s1,0.5,1.6,0.8c0.6,0.3,1.2,0.6,1.7,0.9s1,0.7,1.4,1.1
			s0.7,0.8,1,1.3s0.4,1,0.4,1.7c0,0.8-0.2,1.5-0.5,2.1s-0.8,1-1.3,1.4s-1.2,0.6-1.9,0.8s-1.5,0.2-2.3,0.2c-0.3,0-0.6,0-1-0.1
			s-0.8-0.1-1.2-0.2s-0.8-0.2-1.2-0.3S233.9,197.5,233.6,197.3z"/>
		<path class="st1" d="M257.5,198h-1.9v-6.9c0-2.5-0.9-3.8-2.8-3.8c-0.9,0-1.7,0.4-2.4,1.1s-1,1.7-1,2.8v6.8h-1.9v-17.8h1.9v7.8h0
			c0.9-1.5,2.2-2.3,3.9-2.3c2.7,0,4.1,1.6,4.1,4.9V198z"/>
		<path class="st1" d="M266.7,198.3c-1.8,0-3.2-0.6-4.2-1.7s-1.6-2.6-1.6-4.5c0-2,0.6-3.6,1.7-4.7s2.6-1.7,4.5-1.7
			c1.8,0,3.2,0.6,4.2,1.7s1.5,2.6,1.5,4.6c0,1.9-0.5,3.4-1.6,4.6S268.5,198.3,266.7,198.3z M266.9,187.3c-1.2,0-2.2,0.4-2.9,1.3
			s-1.1,2-1.1,3.5c0,1.4,0.4,2.5,1.1,3.4s1.7,1.2,2.9,1.2c1.2,0,2.2-0.4,2.9-1.2s1-1.9,1-3.4c0-1.5-0.3-2.7-1-3.5
			S268.1,187.3,266.9,187.3z"/>
		<path class="st1" d="M278.3,196.3L278.3,196.3l0,7.3h-1.9V186h1.9v2.1h0c0.9-1.6,2.3-2.4,4.1-2.4c1.5,0,2.8,0.5,3.6,1.6
			s1.3,2.5,1.3,4.3c0,2-0.5,3.6-1.5,4.8s-2.3,1.8-4,1.8C280.4,198.3,279.2,197.6,278.3,196.3z M278.3,191.4v1.7c0,1,0.3,1.8,1,2.5
			s1.5,1,2.5,1c1.2,0,2.1-0.4,2.7-1.3s1-2.1,1-3.7c0-1.3-0.3-2.4-0.9-3.1s-1.5-1.1-2.5-1.1c-1.1,0-2,0.4-2.7,1.2
			S278.3,190.3,278.3,191.4z"/>
		<path class="st1" d="M293,196.3L293,196.3l0,7.3h-1.9V186h1.9v2.1h0c0.9-1.6,2.3-2.4,4.1-2.4c1.5,0,2.8,0.5,3.6,1.6
			s1.3,2.5,1.3,4.3c0,2-0.5,3.6-1.5,4.8s-2.3,1.8-4,1.8C295.1,198.3,293.9,197.6,293,196.3z M293,191.4v1.7c0,1,0.3,1.8,1,2.5
			s1.5,1,2.5,1c1.2,0,2.1-0.4,2.7-1.3s1-2.1,1-3.7c0-1.3-0.3-2.4-0.9-3.1s-1.5-1.1-2.5-1.1c-1.1,0-2,0.4-2.7,1.2
			S293,190.3,293,191.4z"/>
		<path class="st1" d="M306.8,183c-0.3,0-0.6-0.1-0.9-0.4s-0.4-0.5-0.4-0.9s0.1-0.7,0.4-0.9s0.5-0.4,0.9-0.4c0.4,0,0.7,0.1,0.9,0.4
			s0.4,0.5,0.4,0.9c0,0.3-0.1,0.6-0.4,0.9S307.1,183,306.8,183z M307.7,198h-1.9v-12h1.9V198z"/>
		<path class="st1" d="M322.2,198h-1.9v-6.8c0-2.5-0.9-3.8-2.8-3.8c-1,0-1.8,0.4-2.4,1.1s-0.9,1.6-0.9,2.7v6.8h-1.9v-12h1.9v2h0
			c0.9-1.5,2.2-2.3,3.9-2.3c1.3,0,2.3,0.4,3,1.3s1,2.1,1,3.7V198z"/>
		<path class="st1" d="M336.6,197c0,4.4-2.1,6.6-6.3,6.6c-1.5,0-2.8-0.3-3.9-0.8v-1.9c1.4,0.8,2.6,1.1,3.9,1.1c3,0,4.4-1.6,4.4-4.7
			V196h0c-0.9,1.5-2.3,2.3-4.1,2.3c-1.5,0-2.7-0.5-3.6-1.6s-1.4-2.5-1.4-4.3c0-2,0.5-3.7,1.5-4.9s2.3-1.8,4-1.8
			c1.6,0,2.8,0.6,3.6,1.9h0V186h1.9V197z M334.7,192.6v-1.8c0-1-0.3-1.8-1-2.4s-1.4-1-2.4-1c-1.2,0-2.1,0.4-2.8,1.3s-1,2.1-1,3.6
			c0,1.3,0.3,2.4,1,3.2s1.5,1.2,2.6,1.2c1.1,0,2-0.4,2.6-1.1S334.7,193.8,334.7,192.6z"/>
	</g>
	<g class="st0">
		<path class="st1" d="M195.9,247h-1.4v-1.4h0c-0.6,1.1-1.5,1.6-2.8,1.6c-0.9,0-1.6-0.2-2.1-0.7s-0.8-1.1-0.8-1.9c0-1.7,1-2.7,3-2.9
			l2.7-0.4c0-1.5-0.6-2.3-1.9-2.3c-1.1,0-2.1,0.4-2.9,1.1v-1.5c0.9-0.6,1.9-0.8,3.1-0.8c2.1,0,3.2,1.1,3.2,3.4V247z M194.5,242.4
			l-2.2,0.3c-0.7,0.1-1.2,0.3-1.5,0.5c-0.3,0.2-0.5,0.7-0.5,1.3c0,0.4,0.2,0.8,0.5,1.1c0.3,0.3,0.7,0.4,1.3,0.4
			c0.7,0,1.3-0.3,1.8-0.8c0.5-0.5,0.7-1.1,0.7-1.9V242.4z"/>
		<path class="st1" d="M198.5,246.7v-1.5c0.8,0.6,1.6,0.9,2.6,0.9c1.3,0,1.9-0.4,1.9-1.3c0-0.2-0.1-0.4-0.2-0.6
			c-0.1-0.2-0.3-0.3-0.4-0.4s-0.4-0.2-0.7-0.3c-0.2-0.1-0.5-0.2-0.8-0.3c-0.4-0.2-0.7-0.3-1.1-0.5s-0.6-0.3-0.8-0.5
			c-0.2-0.2-0.4-0.4-0.5-0.7s-0.2-0.6-0.2-0.9c0-0.4,0.1-0.8,0.3-1.1c0.2-0.3,0.5-0.6,0.8-0.8c0.3-0.2,0.7-0.4,1.1-0.5
			s0.8-0.2,1.3-0.2c0.8,0,1.5,0.1,2.1,0.4v1.5c-0.7-0.4-1.4-0.7-2.3-0.7c-0.3,0-0.5,0-0.7,0.1c-0.2,0.1-0.4,0.1-0.6,0.3
			s-0.3,0.2-0.4,0.4s-0.1,0.3-0.1,0.5c0,0.2,0,0.4,0.1,0.6s0.2,0.3,0.4,0.4s0.4,0.2,0.6,0.3s0.5,0.2,0.8,0.3
			c0.4,0.2,0.8,0.3,1.1,0.5s0.6,0.3,0.8,0.5c0.2,0.2,0.4,0.4,0.5,0.7s0.2,0.6,0.2,0.9c0,0.4-0.1,0.8-0.3,1.2s-0.5,0.6-0.8,0.8
			s-0.7,0.4-1.1,0.5s-0.9,0.2-1.3,0.2C200,247.2,199.2,247,198.5,246.7z"/>
		<path class="st1" d="M214.6,247h-2l-4-4.3h0v4.3h-1.4v-13.3h1.4v8.4h0l3.8-4.1h1.9l-4.2,4.3L214.6,247z"/>
		<path class="st1" d="M228.4,247h-1.4v-1.4h0c-0.6,1.1-1.5,1.6-2.8,1.6c-0.9,0-1.6-0.2-2.1-0.7s-0.8-1.1-0.8-1.9c0-1.7,1-2.7,3-2.9
			l2.7-0.4c0-1.5-0.6-2.3-1.9-2.3c-1.1,0-2.1,0.4-2.9,1.1v-1.5c0.9-0.6,1.9-0.8,3.1-0.8c2.1,0,3.2,1.1,3.2,3.4V247z M226.9,242.4
			l-2.2,0.3c-0.7,0.1-1.2,0.3-1.5,0.5c-0.3,0.2-0.5,0.7-0.5,1.3c0,0.4,0.2,0.8,0.5,1.1c0.3,0.3,0.7,0.4,1.3,0.4
			c0.7,0,1.3-0.3,1.8-0.8c0.5-0.5,0.7-1.1,0.7-1.9V242.4z"/>
	</g>
	<g class="st0">
		<path class="st1" d="M204.1,268.5h-9.8v8.7h9.1v2.7h-9.1V291h-3v-25.2h12.8V268.5z"/>
		<path class="st1" d="M221,291h-2.9v-2.8h-0.1c-1.3,2.2-3.1,3.2-5.5,3.2c-1.8,0-3.2-0.5-4.2-1.4s-1.5-2.2-1.5-3.8
			c0-3.4,2-5.3,5.9-5.9l5.4-0.8c0-3.1-1.2-4.6-3.7-4.6c-2.2,0-4.1,0.7-5.9,2.2v-3c1.8-1.1,3.8-1.7,6.1-1.7c4.2,0,6.3,2.2,6.3,6.7
			V291z M218.2,281.9l-4.3,0.6c-1.3,0.2-2.3,0.5-3,1s-1,1.3-1,2.5c0,0.9,0.3,1.6,0.9,2.2s1.5,0.8,2.5,0.8c1.4,0,2.6-0.5,3.5-1.5
			s1.4-2.3,1.4-3.8V281.9z"/>
		<path class="st1" d="M241.5,273l-7.2,18h-2.8l-6.8-18h3.2l4.6,13.1c0.3,1,0.6,1.8,0.6,2.5h0.1c0.1-0.9,0.3-1.7,0.6-2.4l4.8-13.1
			H241.5z"/>
		<path class="st1" d="M264,291h-3.5l-4.2-7.1c-0.4-0.7-0.8-1.2-1.1-1.7s-0.7-0.8-1.1-1.1s-0.8-0.5-1.2-0.6s-0.9-0.2-1.5-0.2h-2.4
			V291h-3v-25.2h7.5c1.1,0,2.1,0.1,3,0.4s1.7,0.7,2.4,1.3s1.2,1.3,1.6,2.1s0.6,1.8,0.6,2.9c0,0.9-0.1,1.7-0.4,2.4s-0.6,1.4-1.1,2
			s-1.1,1.1-1.8,1.5s-1.5,0.7-2.3,0.9v0.1c0.4,0.2,0.8,0.4,1.1,0.6s0.6,0.5,0.9,0.9s0.6,0.7,0.8,1.1s0.6,0.9,0.9,1.5L264,291z
			 M248.9,268.5v9.1h4c0.7,0,1.4-0.1,2-0.3s1.2-0.5,1.6-1s0.8-0.9,1.1-1.5s0.4-1.3,0.4-2c0-1.3-0.4-2.4-1.3-3.2s-2.1-1.1-3.8-1.1
			H248.9z"/>
	</g>
	<g id="Group_2" transform="translate(97.127 152.277)">
		<g id="Group_5" transform="translate(-60.29 -5.251)">
			<path id="Path_28" class="st2" d="M24.6,53.5c0,0,2.7-14.9,11.9-19s0.3-9.4,9.3-19.9s23.8-11.1,30,3s-20.7,27-20.7,27
				s-6,13,10.2,26.9S61.5,120,61.5,120S47.2,119.4,35,95.7S24.6,53.5,24.6,53.5z"/>
			<path id="Path_34" class="st3" d="M70.9,89.6c0,0,7.4,5.2,10.8,2.2c3.3-3,12.9-17.8,12.9-17.8l9.6-14.3c0,0-2.4-4.7-3.7-4.7
				c-1.2,0-13,13-13,13S77.2,76.2,76,78.7c-1.2,2.5-9.6-5.9-9.6-5.9L69,90.2L70.9,89.6z"/>
			<path id="Path_33" class="st4" d="M61.5,110.8c0,0,8.7-3.8,8.7-12.7S69.6,82.8,71,79.7s-2-6.9-2-6.9L61.5,110.8z"/>
			<path id="Path_31" class="st5" d="M63.7,58.4c0.5-1.1,8.7,14.7,6.9,20.2s-3.7,7.3-3.5,13.6c0.2,6.3,1.6,25.5,1.6,25.5
				s-3.3,7.6-14.6,2.7s-9.2,1.4-9.2,1.4l11.5-60.3c0,0-0.9-4.7,2-2.1S63.1,59.5,63.7,58.4z"/>
			<path id="Path_35" class="st6" d="M41.7,115.2c0,0-10.3,9.8-2.9,27.2s16.3,34.7,16.3,34.7l21.1-4.5l-5.4-39.5l0.1-14.7l-2-2.7
				v-4.1L41.7,115.2z"/>
			<path id="Path_25" class="st3" d="M48.2,42.3l2.7-10.7c0,0-1.8-7.2,1.1-7.2c2.8,0,3.9,7.2,3.9,7.2s1,6.1,0,8.4
				c-1,2.3,3.4,0.2,1.2-17.4s-1.2,1.8-1.2,1.8c1.2-2.3,3.3-4,5.7-4.7c3.9-1.1,7.4-4.8,7.4-4.8s4.2,2.6,4.2,6.9s-1.7,17.7-8.4,21.4
				c-6.6,3.7-6.5,1.3-6.5,1.3s3.2,12.3,4.5,13.3s-1.8,4-2.8,2.5c-0.6-0.7-0.8-1.6-0.6-2.5L48.2,42.3z"/>
			<path id="Path_26" class="st7" d="M68.1,29.2c-0.8,1.9-2.1,6.3,0,6.3s3.5-1.1,2.6-2.1c-0.9-1,0.7-3.1,0-4.2
				C70,28,68.9,27.2,68.1,29.2z"/>
			<path id="Path_27" class="st7" d="M49.7,35.5c0,0,2.6,6,3.3,6s1.8,7.6,3.4,8.3c1.6,0.7-1.7,1.6-1.7,1.6l-6.4-9.2L49.7,35.5z"/>
			<path id="Path_29" class="st4" d="M37.7,109v2.5c0,0,16.7,0.9,25.4-3.5s-1.9-18-1.9-18s-0.4-5.5,0.8-8.4
				c1.1-2.9,0.7-16.2-1.3-18.7c-1.2-1.5-1.7-3.5-1.3-5.3L48.2,41.5c0,0-4.1,0-4.1,5.8s-7.5,5.5-6.9,13.3S37.7,109,37.7,109z"/>
			<path id="Path_30" class="st3" d="M46.2,51.4c13.1,3.6,5.9,20,5.9,18.8s-5.2,26.6-5.2,26.6s4.3,32.6,4.3,37.8s-4.3,6.2-4.3,6.2
				l-7.8-25.3l-2.6-15.8C36.5,99.8,33.1,47.8,46.2,51.4z"/>
			<path id="Path_32" class="st4" d="M59.7,48.7c0,0,7.3,9.4,6.6,14.7c-0.7,5.3-7.8-13.2-7.8-13.2L59.7,48.7z"/>
			<path id="Path_36" class="st8" d="M43,142.9c0.2,1,3.2-2,3.2-2s0-3.6-0.8-4.2S42.8,141.9,43,142.9z"/>
			<path id="Path_37" class="st8" d="M51.3,130.2v4l2.1-4.8L51.3,130.2z"/>
			<path id="Path_38" class="st8" d="M43.3,146.1c0,0,8,9.9,14,7.4s-1.3,2.7-4.5,2.4C49.7,155.6,43.3,146.1,43.3,146.1z"/>
			<path id="Path_39" class="st6" d="M69.6,110.7l24.1,47.2l-20.1,12.3L65,114.5L69.6,110.7z"/>
			<path id="Path_40" class="st8" d="M73.4,146.8c0,0,3.1,13.3,5,14.9c1.9,1.6,1,4.3,1,4.3l-4.2,2.5L73.4,146.8z"/>
			<path id="Path_43" class="st3" d="M97.7,58.4l3.7-5.6c0,0-0.8-5.7,1-6.8c1.1-0.7,2.4-1.1,3.7-1l3.8-1.2l0.6,2.2
				c0,0,1.4,6.6-1.2,8.7c-2.6,2.1-9.3,8.6-9.3,8.6L97.7,58.4z"/>
			<g id="Group_4" transform="translate(105.216 29.292)">
				<path id="Path_41" class="st9" d="M0,19.4l1.8,4.3l1.6,0.5l7.7-22.6c0,0,0.5-1.7-1.5-1.7C8.3,0.1,7.1,0.7,6.2,1.7L0,19.4z"/>
				<path id="Path_42" class="st10" d="M2.5,21.7L8.7,2.1L6.8,2.6L1.1,18.9L2.5,21.7z"/>
			</g>
		</g>
		<rect id="Rectangle" x="-8.9" y="6.9" class="st2" width="5.8" height="12"/>
	</g>
</g>
</svg>
