<?xml version="1.0" encoding="utf-8"?>
<!-- Generator: Adobe Illustrator 24.2.0, SVG Export Plug-In . SVG Version: 6.00 Build 0)  -->
<svg version="1.1" id="Layer_1" xmlns="http://www.w3.org/2000/svg" xmlns:xlink="http://www.w3.org/1999/xlink" x="0px" y="0px"
	 viewBox="0 0 312.9 150.4" style="enable-background:new 0 0 312.9 150.4;" xml:space="preserve">
<style type="text/css">
	.st0{fill:#4D251E;}
	.st1{fill:#B9B7ED;}
	.st2{fill:#8DC8EC;}
	.st3{fill:#85C1E4;}
	.st4{opacity:0.462;}
	.st5{fill:#6A4842;}
	.st6{fill:none;}
	.st7{fill:none;stroke:#979797;stroke-miterlimit:10;}
	.st8{fill:#FFFFFF;}
	.st9{fill:#D8D8D8;}
	.st10{fill:#8D89F6;}
	.st11{opacity:0.12;fill:#6236FF;enable-background:new    ;}
	.st12{fill:#845D56;}
	.st13{fill:#877EF7;}
	.st14{fill:#5294AF;}
	.st15{fill:#FFEDBC;}
	.st16{fill:#FEC0C4;}
	.st17{opacity:0.12;fill:#5294AF;enable-background:new    ;}
	.st18{fill:#715960;}
	.st19{opacity:0.118;fill:#FFB300;enable-background:new    ;}
	.st20{enable-background:new    ;}
	.st21{fill:#709B78;}
</style>
<g id="start-dropping" transform="translate(-35.062 -471.576)">
	<g id="Group_14_Copy" transform="translate(34.864 471.576)">
		<g id="Group_9" transform="translate(71.482 125.648)">
			<rect id="Rectangle" x="0" y="0" class="st0" width="26.5" height="1.6"/>
			<rect id="Rectangle_Copy_11" x="0" y="1.6" class="st0" width="26.5" height="3.7"/>
		</g>
		<path id="Path_51" class="st1" d="M4.4,126.8c0,0-6.6-4.7-3.3-11.1c1.8-3.6,4.1-7,6.9-10v-3.4l10.6-9.2h53.2c0,0,0.9,2.7-4.5,6
			c-5.5,3.2-3.9,15.7-3.9,15.7s11,20.1,31.9,12.1s1.5-56.9,1.5-56.9s-3.1-9.5,1.5-10.6c2.6-0.6,5.4-0.9,8.1-0.9v11.5
			c0,0-3.8,0.6,0,4.2s14.3,15.4,14.3,15.4l9.1,12.8v3.4l-25.3,25c0,0-17.3,3.9-48.8,0C24.2,126.8,4.4,126.8,4.4,126.8z"/>
		<path id="Rectangle-2" class="st2" d="M17.1,69H35c1.7,0,3,1.3,3,3v9.9c0,1.7-1.3,3-3,3H17.1c-1.7,0-3-1.3-3-3V72
			C14.1,70.4,15.5,69,17.1,69z"/>
		<rect id="Rectangle_Copy_9" x="15" y="72.6" class="st3" width="15" height="11.5"/>
		<g id="Group_13" transform="translate(25.607 68.133)" class="st4">
			<rect id="Rectangle-3" x="0" y="0" class="st0" width="2.6" height="24.8"/>
			<rect id="Rectangle_Copy_10" x="0" y="0" class="st5" width="1.3" height="24.8"/>
		</g>
		<g id="Oval" transform="translate(106.791 59.459) rotate(-25)">
			<ellipse transform="matrix(-1 2.857360e-06 -2.857360e-06 -1 2.67 3.746)" class="st6" cx="1.3" cy="1.9" rx="1.3" ry="1.9"/>
			<ellipse transform="matrix(-1 2.874584e-06 -2.874584e-06 -1 2.67 3.746)" class="st7" cx="1.3" cy="1.9" rx="0.8" ry="1.4"/>
		</g>
		<ellipse id="Oval-2" class="st0" cx="28.3" cy="135.4" rx="16.8" ry="15"/>
		<ellipse id="Oval_Copy_8" class="st0" cx="27.4" cy="131.4" rx="12.4" ry="12.8"/>
		<ellipse id="Oval_Copy_9" class="st8" cx="28.7" cy="128.7" rx="10.1" ry="12.8"/>
		<ellipse id="Oval_Copy_10" class="st0" cx="28.3" cy="131.4" rx="4.4" ry="5.8"/>
		<g id="Oval-3" transform="translate(12.374 123.878)">
			<ellipse class="st9" cx="1.3" cy="0.4" rx="1.3" ry="0.4"/>
			<ellipse class="st7" cx="1.3" cy="0.4" rx="0.8" ry="0.1"/>
		</g>
		<g id="Oval-4" transform="translate(17.667 121.224)">
			<ellipse class="st9" cx="1.3" cy="0.4" rx="1.3" ry="0.4"/>
			<ellipse class="st7" cx="1.3" cy="0.4" rx="0.8" ry="0.1"/>
		</g>
		<g id="Oval-5" transform="translate(36.193 119.454)">
			<ellipse class="st9" cx="1.3" cy="0.4" rx="1.3" ry="0.4"/>
			<ellipse class="st7" cx="1.3" cy="0.4" rx="0.8" ry="0.1"/>
		</g>
		<path id="Path_44" class="st10" d="M5.3,129.9c0,0,0.4-23.5,24.6-28.6c24.2-5.2,25.8,6.5,27.4,14.3s3.4,17.2-13.8,17.2
			S5.3,129.9,5.3,129.9z"/>
		<path id="Path_45" class="st11" d="M5.4,129.3l3.8,0.8c0,0,3.7-21.6,20.8-25.3s22.1,0,22.1,0v-1.6c0,0-10.9-6.4-29.3,0
			S5.4,129.3,5.4,129.3z"/>
		<path id="Path_46" class="st11" d="M18.8,119.7l16.5,0.6c0,0-9.6-2.4-13.7-1.6C17.6,119.6,18.8,119.7,18.8,119.7z"/>
		<g id="Group_11" transform="translate(111.182 116.8)">
			<g id="Group_10" transform="translate(0)">
				<ellipse id="Oval-6" class="st0" cx="17.2" cy="16.8" rx="17.2" ry="16.8"/>
				<ellipse id="Oval-7" class="st0" cx="16.9" cy="16" rx="11.6" ry="11.7"/>
				<ellipse id="Oval-8" class="st8" cx="16.7" cy="16.5" rx="8.7" ry="8.4"/>
				<ellipse id="Oval-9" class="st0" cx="16.7" cy="16.3" rx="4.5" ry="4.3"/>
			</g>
			<path id="Path_57" class="st12" d="M16.9,17.5L14.1,5.7L9.8,8.2L16.9,17.5z"/>
		</g>
		<path id="Path_47" class="st11" d="M15.9,125.2c0,0,11.6,0.9,16,0C36.3,124.3,15.9,125.2,15.9,125.2z"/>
		<path id="Path_48" class="st11" d="M21.2,122L38,123c-3.2-1-6.4-1.6-9.7-1.8C25.8,121.2,23.5,121.4,21.2,122z"/>
		<path id="Path_49" class="st11" d="M54.9,124.8c-3.6,0,0.3,5.1-16.3,6.2c-16.6,1.1,6.9,1.3,12-0.6S58.4,124.8,54.9,124.8z"/>
		<path id="Path_50" class="st11" d="M50.3,107.1c0,0,4.1,9.3,4.1,11.1c0,1.8,1.9-2.8,0.9-5.6C54.4,109.9,50.3,107.1,50.3,107.1z"/>
		<path id="Path_52" class="st13" d="M8,105.3c0,0,12.7-11.7,19.2-11.7s-8.6-0.7-8.6-0.7L8,102V105.3z"/>
		<path id="Path_53" class="st10" d="M58.1,123.9l-3.4,5.9c0,0,15.9,2.9,13.9,1.8C66.6,130.4,58.1,123.9,58.1,123.9z"/>
		<path id="Path_54" class="st10" d="M104.5,72.8c0,0-4.3-0.5-2.1,3.1s7.2,11.7,7.2,20.3s-1.3,23.5-5,26.2s-6,5.3,0-5.5
			s-8.1-48.5-8.1-48.5s-4.3-12.8,8.1-11.7s1.9,11.7,1.9,11.7h-3.1L104.5,72.8z"/>
		<path id="Path_55" class="st10" d="M111.3,135.4c0,0,12.6-14.7,24.8-13.1c12.2,1.6,5-10.4,5-10.4s-14.7-12.3-24.1-4.5
			s-10.4,11.2-12.5,19.6S111.3,135.4,111.3,135.4z"/>
		<path id="Path_61" class="st14" d="M72.4,117.8l5,2.6l20.3-34.5c0,0,3.1-5.2-2.9-6.3c-6-1.1-24.7-1.7-24.7-1.7l-1.4,9.4
			c0,0,15,2.5,12.2,3.8S72.4,117.8,72.4,117.8z"/>
		<path id="Path_56" class="st13" d="M109.9,134.5c7,0-5.2-8.2,5.5-21.3s23.1-2.4,23.1-2.4s-11.7-9.1-21-3.3
			c-9.3,5.7-11.6,17.7-11.6,17.7S102.9,134.5,109.9,134.5z"/>
		<path id="Path_71" class="st0" d="M94.4,64.8c0,0,0.1,4.8,2.7,4.1c1.2-0.2,2.4-0.7,3.4-1.5l1.9-3.2l-2.7-1.6l-3.8-0.7L94.4,64.8z"
			/>
		<ellipse id="Oval-10" class="st15" cx="108.5" cy="63.7" rx="3.5" ry="6.2"/>
		<g id="Group_12" transform="translate(7.228 92.024)">
			<path id="Path_58" class="st15" d="M0.4,9.6c0,0-1.8-2.2,1.8-5.5S8,0,8,0h3.3L0.4,9.6z"/>
			<path id="Oval-11" class="st8" d="M4.8,4.2c1.8-1.4,3-2.8,2.7-3.1c-0.3-0.4-2,0.5-3.7,1.9s-3,2.8-2.7,3.1S3,5.6,4.8,4.2z"/>
		</g>
		<path id="Path_59" class="st0" d="M20.7,92c0,0-1.9-7,6.5-7.6c8.4-0.7,45.2,0,45.2,0V92H20.7z"/>
		<path id="Path_60" class="st2" d="M42.4,82c0,0,7.5,10.7,20.2,8.4s20-4,20-4s-2.3,31.7,0.9,32.5c1.5,0.5,3.1,0.6,4.7,0.4L91,95.6
			c0,0,7.5-19.7-1.6-19.7s-23.9-3.4-23.9-3.4l-5.1,1L42.4,82z"/>
		<path id="Path_62" class="st16" d="M84.8,120.3c0,0-0.4,2.7,1,2.7c0.8,0,1.7-0.2,2.4-0.6l-0.7-1.8L84.8,120.3z"/>
		<path id="Path_63" class="st16" d="M73.7,118.6l-1.3,3.2c0,0,2.9,0.7,3.6,0c0.5-0.5,0.8-1.1,0.8-1.8L73.7,118.6z"/>
		<path id="Path_64" class="st15" d="M84.8,123.6c0,0-2,2,0,2s10.5,0,10.5,0s-1.8-3.1-5.2-2.6C88.4,123.4,86.6,123.6,84.8,123.6z"/>
		<path id="Path_64_Copy" class="st15" d="M72.5,123.6c0,0-2,2,0,2s10.5,0,10.5,0s-1.8-3.1-5.2-2.6C76,123.4,74.3,123.6,72.5,123.6z
			"/>
		<path id="Path_65" class="st17" d="M42.4,82.3L53.2,77c0,0,31.8,6.1,15.2,12.9S42.4,82.3,42.4,82.3z"/>
		<path id="Path_66" class="st3" d="M82.2,115c-0.4-0.2,0.5,3.9,2.4,4.3s1.9-1.1,1.9-1.1S82.5,115.2,82.2,115z"/>
		<path id="Path_69" class="st7" d="M60,54c0,0,3.6,13,4.8,11.3c0.7-1,1.4-1.9,2.3-2.6L60,54z"/>
		<path id="Path_70" class="st16" d="M92.7,63c0,0,0.1,1.3,1.9,0c0.9-0.7,1.9-1.2,3-1.3c0,0,2.1,1.4,2.1,3.2s1.8-1.9,1.8-1.9
			s0.4-2.8-2.8-2.8h-4.8L92.7,63z"/>
		<path id="Path_73" class="st18" d="M58.9,25.4c-4.6-3.6-11.3-7.1-7.5-14.6c3.8-7.5,7.5-12.8,12.7-10.2s13.1,1.4,13.1,1.4
			s8,5,2.9,8.7c-5.1,3.7-16,10-16,10S63.5,29,58.9,25.4z"/>
		<path id="Path_72" class="st16" d="M76.8,13.3c0,0-0.2,17.7-5.2,17.7s-11.1-5.8-11.1-5.8s1.4-2.4,0-4.4c-1.4-2,0.2-7.5,1.9-3.7
			s2.9,2.6,2.9,2.6l1.2-6.4H76.8z"/>
		<path id="Path_74" class="st16" d="M55.6,30.8c0,0,4.5-5,3.8-6.6c-0.7-1.5,7.7,3.3,7.7,3.3s-3.6,4.6-3.6,9.8S55.6,30.8,55.6,30.8z
			"/>
		<path id="Path_67" class="st15" d="M55.3,29.2l9.2,6.6l12,22.7l16.1,1.7c0,0,2,0,0,2.4s-16.4,8.1-21.7,2.3s-4.9,0-4.9,0v5.8
			L42.2,81.4c0,0-4.8-2.8-4.2-16.5c0.7-13.7,13.8-34.2,13.8-34.2L55.3,29.2z"/>
		<path id="Path_68" class="st19" d="M43.5,48c8.8-7.4,4.8,25.5,8.4,26.5c3.6,1-2.6,4.9-8.4,6.9C37.7,83.3,34.7,55.3,43.5,48z"/>
		
			<ellipse id="Oval-12" transform="matrix(0.9994 -3.501355e-02 3.501355e-02 0.9994 -2.1932 3.7701)" class="st8" cx="106.5" cy="64.5" rx="1.3" ry="2.9"/>
	</g>
	<g class="st20">
		<path class="st21" d="M199.1,508.5v-1.7c0.2,0.2,0.4,0.3,0.7,0.5s0.6,0.3,0.9,0.4c0.3,0.1,0.6,0.2,0.9,0.2s0.6,0.1,0.9,0.1
			c0.9,0,1.6-0.2,2-0.5s0.7-0.8,0.7-1.5c0-0.3-0.1-0.6-0.2-0.9s-0.4-0.5-0.6-0.7c-0.3-0.2-0.6-0.4-0.9-0.6c-0.4-0.2-0.7-0.4-1.2-0.6
			c-0.4-0.2-0.8-0.4-1.2-0.7s-0.7-0.5-1-0.8s-0.5-0.6-0.7-0.9c-0.2-0.3-0.2-0.8-0.2-1.2c0-0.6,0.1-1.1,0.4-1.5c0.3-0.4,0.6-0.8,1-1
			s0.9-0.5,1.4-0.6s1.1-0.2,1.6-0.2c1.2,0,2.1,0.1,2.7,0.4v1.7c-0.7-0.5-1.7-0.8-2.9-0.8c-0.3,0-0.6,0-1,0.1s-0.6,0.2-0.9,0.3
			s-0.5,0.3-0.6,0.6s-0.2,0.5-0.2,0.9c0,0.3,0.1,0.6,0.2,0.8s0.3,0.4,0.5,0.6s0.5,0.4,0.9,0.6s0.7,0.4,1.2,0.6
			c0.5,0.2,0.9,0.5,1.3,0.7s0.8,0.5,1.1,0.8s0.5,0.6,0.7,1s0.3,0.8,0.3,1.2c0,0.6-0.1,1.1-0.4,1.6c-0.2,0.4-0.6,0.8-1,1
			s-0.9,0.5-1.4,0.6c-0.5,0.1-1.1,0.2-1.7,0.2c-0.2,0-0.4,0-0.7,0s-0.6-0.1-0.9-0.1c-0.3-0.1-0.6-0.1-0.9-0.2
			C199.4,508.7,199.2,508.6,199.1,508.5z"/>
		<path class="st21" d="M213.1,508.9c-0.3,0.2-0.8,0.3-1.3,0.3c-1.6,0-2.4-0.9-2.4-2.6v-5.3h-1.5V500h1.5v-2.2l1.4-0.5v2.7h2.3v1.2
			h-2.3v5.1c0,0.6,0.1,1,0.3,1.3s0.5,0.4,1,0.4c0.4,0,0.7-0.1,0.9-0.3V508.9z"/>
		<path class="st21" d="M221.9,509h-1.4v-1.4h0c-0.6,1.1-1.5,1.6-2.8,1.6c-0.9,0-1.6-0.2-2.1-0.7c-0.5-0.5-0.8-1.1-0.8-1.9
			c0-1.7,1-2.7,3-2.9l2.7-0.4c0-1.5-0.6-2.3-1.9-2.3c-1.1,0-2.1,0.4-2.9,1.1v-1.5c0.9-0.6,1.9-0.8,3.1-0.8c2.1,0,3.2,1.1,3.2,3.4
			V509z M220.4,504.4l-2.2,0.3c-0.7,0.1-1.2,0.3-1.5,0.5c-0.3,0.2-0.5,0.7-0.5,1.3c0,0.4,0.2,0.8,0.5,1.1c0.3,0.3,0.7,0.4,1.3,0.4
			c0.7,0,1.3-0.3,1.8-0.8c0.5-0.5,0.7-1.1,0.7-1.9V504.4z"/>
		<path class="st21" d="M229.7,501.5c-0.3-0.2-0.6-0.3-1.1-0.3c-0.6,0-1.1,0.3-1.5,0.9c-0.4,0.6-0.6,1.4-0.6,2.4v4.6H225v-9h1.4v1.9
			h0c0.2-0.6,0.5-1.1,0.9-1.5c0.4-0.4,0.9-0.5,1.4-0.5c0.4,0,0.7,0,0.9,0.1V501.5z"/>
		<path class="st21" d="M235.9,508.9c-0.3,0.2-0.8,0.3-1.3,0.3c-1.6,0-2.4-0.9-2.4-2.6v-5.3h-1.5V500h1.5v-2.2l1.4-0.5v2.7h2.3v1.2
			h-2.3v5.1c0,0.6,0.1,1,0.3,1.3s0.5,0.4,1,0.4c0.4,0,0.7-0.1,0.9-0.3V508.9z"/>
	</g>
	<g class="st20">
		<path class="st21" d="M244.4,509v-16.8h4.6c5.9,0,8.9,2.7,8.9,8.2c0,2.6-0.8,4.7-2.5,6.3c-1.6,1.6-3.8,2.4-6.6,2.4H244.4z
			 M246.4,494v13.2h2.5c2.2,0,3.9-0.6,5.1-1.8s1.8-2.9,1.8-5c0-4.3-2.3-6.5-6.9-6.5H246.4z"/>
		<path class="st21" d="M267.9,498.9c-0.3-0.3-0.8-0.4-1.5-0.4c-0.8,0-1.5,0.4-2.1,1.2s-0.8,1.8-0.8,3.2v6.1h-1.9v-12h1.9v2.5h0
			c0.3-0.8,0.7-1.5,1.3-2s1.2-0.7,1.9-0.7c0.5,0,0.9,0.1,1.1,0.2V498.9z"/>
		<path class="st21" d="M275.6,509.3c-1.8,0-3.2-0.6-4.2-1.7s-1.6-2.6-1.6-4.5c0-2,0.6-3.6,1.7-4.7s2.6-1.7,4.5-1.7
			c1.8,0,3.2,0.6,4.2,1.7s1.5,2.6,1.5,4.6c0,1.9-0.5,3.4-1.6,4.6S277.4,509.3,275.6,509.3z M275.7,498.3c-1.2,0-2.2,0.4-2.9,1.3
			s-1.1,2-1.1,3.5c0,1.4,0.4,2.5,1.1,3.4s1.7,1.2,2.9,1.2c1.2,0,2.2-0.4,2.9-1.2s1-1.9,1-3.4c0-1.5-0.3-2.7-1-3.5
			S276.9,498.3,275.7,498.3z"/>
		<path class="st21" d="M287.2,507.3L287.2,507.3l0,7.3h-1.9V497h1.9v2.1h0c0.9-1.6,2.3-2.4,4.1-2.4c1.5,0,2.8,0.5,3.6,1.6
			s1.3,2.5,1.3,4.3c0,2-0.5,3.6-1.5,4.8s-2.3,1.8-4,1.8C289.2,509.3,288,508.6,287.2,507.3z M287.1,502.4v1.7c0,1,0.3,1.8,1,2.5
			s1.5,1,2.5,1c1.2,0,2.1-0.4,2.7-1.3s1-2.1,1-3.7c0-1.3-0.3-2.4-0.9-3.1s-1.5-1.1-2.5-1.1c-1.1,0-2,0.4-2.7,1.2
			S287.1,501.3,287.1,502.4z"/>
		<path class="st21" d="M301.9,507.3L301.9,507.3l0,7.3h-1.9V497h1.9v2.1h0c0.9-1.6,2.3-2.4,4.1-2.4c1.5,0,2.8,0.5,3.6,1.6
			s1.3,2.5,1.3,4.3c0,2-0.5,3.6-1.5,4.8s-2.3,1.8-4,1.8C303.9,509.3,302.7,508.6,301.9,507.3z M301.8,502.4v1.7c0,1,0.3,1.8,1,2.5
			s1.5,1,2.5,1c1.2,0,2.1-0.4,2.7-1.3s1-2.1,1-3.7c0-1.3-0.3-2.4-0.9-3.1s-1.5-1.1-2.5-1.1c-1.1,0-2,0.4-2.7,1.2
			S301.8,501.3,301.8,502.4z"/>
		<path class="st21" d="M315.6,494c-0.3,0-0.6-0.1-0.9-0.4s-0.4-0.5-0.4-0.9s0.1-0.7,0.4-0.9s0.5-0.4,0.9-0.4c0.4,0,0.7,0.1,0.9,0.4
			s0.4,0.5,0.4,0.9c0,0.3-0.1,0.6-0.4,0.9S316,494,315.6,494z M316.5,509h-1.9v-12h1.9V509z"/>
		<path class="st21" d="M331,509h-1.9v-6.8c0-2.5-0.9-3.8-2.8-3.8c-1,0-1.8,0.4-2.4,1.1s-0.9,1.6-0.9,2.7v6.8H321v-12h1.9v2h0
			c0.9-1.5,2.2-2.3,3.9-2.3c1.3,0,2.3,0.4,3,1.3s1,2.1,1,3.7V509z"/>
		<path class="st21" d="M345.5,508c0,4.4-2.1,6.6-6.3,6.6c-1.5,0-2.8-0.3-3.9-0.8v-1.9c1.4,0.8,2.6,1.1,3.9,1.1c3,0,4.4-1.6,4.4-4.7
			V507h0c-0.9,1.5-2.3,2.3-4.1,2.3c-1.5,0-2.7-0.5-3.6-1.6s-1.4-2.5-1.4-4.3c0-2,0.5-3.7,1.5-4.9s2.3-1.8,4-1.8
			c1.6,0,2.8,0.6,3.6,1.9h0V497h1.9V508z M343.5,503.6v-1.8c0-1-0.3-1.8-1-2.4s-1.4-1-2.4-1c-1.2,0-2.1,0.4-2.8,1.3s-1,2.1-1,3.6
			c0,1.3,0.3,2.4,1,3.2s1.5,1.2,2.6,1.2c1.1,0,2-0.4,2.6-1.1S343.5,504.8,343.5,503.6z"/>
	</g>
	<g class="st20">
		<path class="st21" d="M207.1,558h-1.4v-1.5h0c-0.7,1.2-1.7,1.7-3.1,1.7c-1.1,0-2-0.4-2.7-1.2c-0.7-0.8-1-1.9-1-3.3
			c0-1.5,0.4-2.7,1.1-3.6s1.8-1.3,3-1.3c1.2,0,2.1,0.5,2.7,1.5h0v-5.6h1.4V558z M205.7,553.9v-1.3c0-0.7-0.2-1.3-0.7-1.8
			s-1.1-0.8-1.8-0.8c-0.9,0-1.6,0.3-2.1,1s-0.8,1.5-0.8,2.7c0,1,0.2,1.9,0.7,2.5s1.1,0.9,1.9,0.9c0.8,0,1.5-0.3,2-0.9
			S205.7,554.8,205.7,553.9z"/>
		<path class="st21" d="M214.3,558.2c-1.3,0-2.4-0.4-3.2-1.3c-0.8-0.8-1.2-2-1.2-3.3c0-1.5,0.4-2.7,1.2-3.5s1.9-1.3,3.3-1.3
			c1.3,0,2.4,0.4,3.1,1.2s1.1,2,1.1,3.4c0,1.4-0.4,2.6-1.2,3.4C216.7,557.8,215.6,558.2,214.3,558.2z M214.4,550
			c-0.9,0-1.7,0.3-2.2,0.9s-0.8,1.5-0.8,2.6c0,1.1,0.3,1.9,0.8,2.5s1.3,0.9,2.2,0.9c0.9,0,1.6-0.3,2.1-0.9s0.8-1.5,0.8-2.6
			c0-1.1-0.3-2-0.8-2.6S215.3,550,214.4,550z"/>
		<path class="st21" d="M233.3,558h-1.4v-1.4h0c-0.6,1.1-1.5,1.6-2.8,1.6c-0.9,0-1.6-0.2-2.1-0.7c-0.5-0.5-0.8-1.1-0.8-1.9
			c0-1.7,1-2.7,3-2.9l2.7-0.4c0-1.5-0.6-2.3-1.9-2.3c-1.1,0-2.1,0.4-2.9,1.1v-1.5c0.9-0.6,1.9-0.8,3.1-0.8c2.1,0,3.2,1.1,3.2,3.4
			V558z M231.9,553.4l-2.2,0.3c-0.7,0.1-1.2,0.3-1.5,0.5c-0.3,0.2-0.5,0.7-0.5,1.3c0,0.4,0.2,0.8,0.5,1.1c0.3,0.3,0.7,0.4,1.3,0.4
			c0.7,0,1.3-0.3,1.8-0.8c0.5-0.5,0.7-1.1,0.7-1.9V553.4z"/>
	</g>
	<g class="st20">
		<path class="st21" d="M214.1,579.5h-9.8v8.7h9.1v2.7h-9.1V602h-3v-25.2h12.8V579.5z"/>
		<path class="st21" d="M231.1,602h-2.9v-2.8h-0.1c-1.3,2.2-3.1,3.2-5.5,3.2c-1.8,0-3.2-0.5-4.2-1.4s-1.5-2.2-1.5-3.8
			c0-3.4,2-5.3,5.9-5.9l5.4-0.8c0-3.1-1.2-4.6-3.7-4.6c-2.2,0-4.1,0.7-5.9,2.2v-3c1.8-1.1,3.8-1.7,6.1-1.7c4.2,0,6.3,2.2,6.3,6.7
			V602z M228.2,592.9l-4.3,0.6c-1.3,0.2-2.3,0.5-3,1s-1,1.3-1,2.5c0,0.9,0.3,1.6,0.9,2.2s1.5,0.8,2.5,0.8c1.4,0,2.6-0.5,3.5-1.5
			s1.4-2.3,1.4-3.8V592.9z"/>
		<path class="st21" d="M251.5,584l-7.2,18h-2.8l-6.8-18h3.2l4.6,13.1c0.3,1,0.6,1.8,0.6,2.5h0.1c0.1-0.9,0.3-1.7,0.6-2.4l4.8-13.1
			H251.5z"/>
		<path class="st21" d="M274,602h-3.5l-4.2-7.1c-0.4-0.7-0.8-1.2-1.1-1.7s-0.7-0.8-1.1-1.1s-0.8-0.5-1.2-0.6s-0.9-0.2-1.5-0.2h-2.4
			V602h-3v-25.2h7.5c1.1,0,2.1,0.1,3,0.4s1.7,0.7,2.4,1.3s1.2,1.3,1.6,2.1s0.6,1.8,0.6,2.9c0,0.9-0.1,1.7-0.4,2.4s-0.6,1.4-1.1,2
			s-1.1,1.1-1.8,1.5s-1.5,0.7-2.3,0.9v0.1c0.4,0.2,0.8,0.4,1.1,0.6s0.6,0.5,0.9,0.9s0.6,0.7,0.8,1.1s0.6,0.9,0.9,1.5L274,602z
			 M258.9,579.5v9.1h4c0.7,0,1.4-0.1,2-0.3s1.2-0.5,1.6-1s0.8-0.9,1.1-1.5s0.4-1.3,0.4-2c0-1.3-0.4-2.4-1.3-3.2s-2.1-1.1-3.8-1.1
			H258.9z"/>
	</g>
</g>
</svg>
